<svg width="24" height="24" viewBox="0 0 24 24" fill="none" xmlns="http://www.w3.org/2000/svg">
<path d="M8.12065 9.29007L12.0006 13.1701L15.8806 9.29007C15.9732 9.19749 16.0831 9.12405 16.2041 9.07394C16.3251 9.02384 16.4547 8.99805 16.5856 8.99805C16.7166 8.99805 16.8462 9.02384 16.9672 9.07394C17.0882 9.12405 17.1981 9.19749 17.2906 9.29007C17.3832 9.38265 17.4567 9.49256 17.5068 9.61352C17.5569 9.73449 17.5827 9.86414 17.5827 9.99507C17.5827 10.126 17.5569 10.2556 17.5068 10.3766C17.4567 10.4976 17.3832 10.6075 17.2906 10.7001L12.7006 15.2901C12.6081 15.3828 12.4982 15.4563 12.3773 15.5065C12.2563 15.5567 12.1266 15.5825 11.9956 15.5825C11.8647 15.5825 11.735 15.5567 11.614 15.5065C11.493 15.4563 11.3832 15.3828 11.2906 15.2901L6.70065 10.7001C6.60794 10.6076 6.5344 10.4977 6.48421 10.3767C6.43403 10.2557 6.4082 10.126 6.4082 9.99507C6.4082 9.8641 6.43403 9.73442 6.48421 9.61344C6.5344 9.49247 6.60794 9.38258 6.70065 9.29007C7.09065 8.91007 7.73065 8.90007 8.12065 9.29007Z" fill="black"/>
</svg>
