<svg width="25" height="24" viewBox="0 0 25 24" fill="none" xmlns="http://www.w3.org/2000/svg">
<path d="M11.16 6H14.5C15.0304 6 15.5391 6.21071 15.9142 6.58579C16.2893 6.96086 16.5 7.46957 16.5 8V10.34L17.5 11.34L22.5 8V16M2.5 2L22.5 22M16.5 16C16.5 16.5304 16.2893 17.0391 15.9142 17.4142C15.5391 17.7893 15.0304 18 14.5 18H4.5C3.96957 18 3.46086 17.7893 3.08579 17.4142C2.71071 17.0391 2.5 16.5304 2.5 16V8C2.5 7.46957 2.71071 6.96086 3.08579 6.58579C3.46086 6.21071 3.96957 6 4.5 6H6.5L16.5 16Z" stroke="#CD3E3E" stroke-width="1.5" stroke-linecap="round" stroke-linejoin="round"/>
</svg>
