<svg width="48" height="48" viewBox="0 0 48 48" fill="none" xmlns="http://www.w3.org/2000/svg">
<path d="M6 29.9995L16.24 19.7595C17.3641 18.634 18.8892 18.0009 20.48 17.9995H26C27.0609 17.9995 28.0783 18.421 28.8284 19.1711C29.5786 19.9213 30 20.9387 30 21.9995C30 23.0604 29.5786 24.0778 28.8284 24.828C28.0783 25.5781 27.0609 25.9995 26 25.9995H21M29 24.6395L37.34 14.8595C37.9843 14.1453 38.8779 13.7052 39.8368 13.6298C40.7958 13.5543 41.7472 13.8492 42.4953 14.4539C43.2434 15.0585 43.7313 15.9269 43.8587 16.8803C43.9861 17.8337 43.7432 18.7997 43.18 19.5795L34.78 31.4595C34.2301 32.2387 33.5023 32.8755 32.6572 33.3172C31.812 33.759 30.8736 33.9929 29.92 33.9995H19.66C19.1322 33.9991 18.6095 34.1032 18.1221 34.3057C17.6346 34.5082 17.1921 34.8052 16.82 35.1795L14 37.9995M4 27.9995L16 39.9995" stroke="black" stroke-width="3" stroke-linecap="round" stroke-linejoin="round"/>
</svg>
