<svg width="16" height="17" viewBox="0 0 16 17" fill="none" xmlns="http://www.w3.org/2000/svg">
<path d="M13.6562 2.375H9.71875C9.66719 2.375 9.625 2.41719 9.625 2.46875V3.34375C9.625 3.39531 9.66719 3.4375 9.71875 3.4375H12.225L9.11094 6.55156C8.32969 5.95 7.37656 5.625 6.375 5.625C5.17344 5.625 4.04219 6.09375 3.19375 6.94375C2.34531 7.79375 1.875 8.92344 1.875 10.125C1.875 11.3266 2.34375 12.4578 3.19375 13.3062C4.04219 14.1562 5.17344 14.625 6.375 14.625C7.57656 14.625 8.70781 14.1562 9.55625 13.3062C10.4062 12.4578 10.875 11.3266 10.875 10.125C10.875 9.12344 10.55 8.17344 9.95 7.39219L13.0625 4.27969V6.78125C13.0625 6.83281 13.1047 6.875 13.1562 6.875H14.0312C14.0828 6.875 14.125 6.83281 14.125 6.78125V2.84375C14.125 2.58594 13.9141 2.375 13.6562 2.375ZM6.375 13.4375C4.54844 13.4375 3.0625 11.9516 3.0625 10.125C3.0625 8.29844 4.54844 6.8125 6.375 6.8125C8.20156 6.8125 9.6875 8.29844 9.6875 10.125C9.6875 11.9516 8.20156 13.4375 6.375 13.4375Z" fill="#56C595"/>
</svg>
