<svg width="48" height="48" viewBox="0 0 48 48" fill="none" xmlns="http://www.w3.org/2000/svg">
<path d="M17.28 28.0001L13.18 23.9201M30.68 30.0001L25.76 25.0801M4.54004 43.4001C4.54004 43.4001 24.28 36.4001 30 30.6801C30.8366 29.8449 31.5004 28.8531 31.9536 27.7613C32.4068 26.6696 32.6406 25.4992 32.6415 24.3171C32.6424 23.135 32.4105 21.9644 31.959 20.8719C31.5075 19.7794 30.8452 18.7866 30.01 17.9501C29.1748 17.1135 28.183 16.4497 27.0913 15.9965C25.9995 15.5433 24.8292 15.3095 23.6471 15.3086C22.465 15.3077 21.2943 15.5396 20.2019 15.9911C19.1094 16.4426 18.1166 17.1049 17.28 17.9401C11.54 23.6801 4.54004 43.4001 4.54004 43.4001Z" stroke="black" stroke-width="3" stroke-linecap="round" stroke-linejoin="round"/>
<path d="M44 18C44 18 41.34 14 37 14C33.72 14 30 18 30 18C30 18 32.66 22 37 22C41.34 22 44 18 44 18Z" stroke="black" stroke-width="3" stroke-linecap="round" stroke-linejoin="round"/>
<path d="M30 4C30 4 26 6.66 26 11C26 15.34 30 18 30 18C30 18 34 14.32 34 11C34 6.66 30 4 30 4Z" stroke="black" stroke-width="3" stroke-linecap="round" stroke-linejoin="round"/>
</svg>
