<svg width="20" height="20" viewBox="0 0 20 20" fill="none" xmlns="http://www.w3.org/2000/svg">
<path d="M3.33398 1.66699V18.3337L5.00065 17.5003L6.66732 18.3337L8.33398 17.5003L10.0007 18.3337L11.6673 17.5003L13.334 18.3337L15.0007 17.5003L16.6673 18.3337V1.66699L15.0007 2.50033L13.334 1.66699L11.6673 2.50033L10.0007 1.66699L8.33398 2.50033L6.66732 1.66699L5.00065 2.50033L3.33398 1.66699Z" stroke="#56C595" stroke-width="1.25" stroke-linecap="round" stroke-linejoin="round"/>
<path d="M13.3337 6.66683H8.33366C7.89163 6.66683 7.46771 6.84242 7.15515 7.15499C6.84259 7.46755 6.66699 7.89147 6.66699 8.3335C6.66699 8.77552 6.84259 9.19945 7.15515 9.51201C7.46771 9.82457 7.89163 10.0002 8.33366 10.0002H11.667C12.109 10.0002 12.5329 10.1758 12.8455 10.4883C13.1581 10.8009 13.3337 11.2248 13.3337 11.6668C13.3337 12.1089 13.1581 12.5328 12.8455 12.8453C12.5329 13.1579 12.109 13.3335 11.667 13.3335H6.66699M10.0003 14.1668V5.8335" stroke="#56C595" stroke-width="1.25" stroke-linecap="round" stroke-linejoin="round"/>
</svg>
