<svg width="80" height="16" viewBox="0 0 80 16" fill="none" xmlns="http://www.w3.org/2000/svg">
<path d="M7.99967 1.33325L10.0597 5.50659L14.6663 6.17992L11.333 9.42659L12.1197 14.0133L7.99967 11.8466L3.87967 14.0133L4.66634 9.42659L1.33301 6.17992L5.93967 5.50659L7.99967 1.33325Z" fill="black"/>
<path d="M23.9997 1.33325L26.0597 5.50659L30.6663 6.17992L27.333 9.42659L28.1197 14.0133L23.9997 11.8466L19.8797 14.0133L20.6663 9.42659L17.333 6.17992L21.9397 5.50659L23.9997 1.33325Z" fill="black"/>
<path d="M39.9997 1.33325L42.0597 5.50659L46.6663 6.17992L43.333 9.42659L44.1197 14.0133L39.9997 11.8466L35.8797 14.0133L36.6663 9.42659L33.333 6.17992L37.9397 5.50659L39.9997 1.33325Z" fill="black"/>
<path d="M55.9997 1.33325L58.0597 5.50659L62.6663 6.17992L59.333 9.42659L60.1197 14.0133L55.9997 11.8466L51.8797 14.0133L52.6663 9.42659L49.333 6.17992L53.9397 5.50659L55.9997 1.33325Z" fill="black"/>
<path d="M71.9997 1.33325L74.0597 5.50659L78.6663 6.17992L75.333 9.42659L76.1197 14.0133L71.9997 11.8466L67.8797 14.0133L68.6663 9.42659L65.333 6.17992L69.9397 5.50659L71.9997 1.33325Z" fill="black"/>
</svg>
