<svg width="24" height="24" viewBox="0 0 24 24" fill="none" xmlns="http://www.w3.org/2000/svg">
<path d="M3 14.9993L8.12 9.87928C8.68207 9.31651 9.44462 8.99998 10.24 8.99928H13C13.5304 8.99928 14.0391 9.21 14.4142 9.58507C14.7893 9.96014 15 10.4689 15 10.9993C15 11.5297 14.7893 12.0384 14.4142 12.4135C14.0391 12.7886 13.5304 12.9993 13 12.9993H10.5M14.5 12.3193L18.67 7.42928C18.9922 7.07218 19.4389 6.85212 19.9184 6.81439C20.3979 6.77666 20.8736 6.92412 21.2476 7.22644C21.6217 7.52876 21.8657 7.96295 21.9293 8.43966C21.993 8.91638 21.8716 9.39938 21.59 9.78928L17.39 15.7293C17.115 16.1189 16.7512 16.4373 16.3286 16.6581C15.906 16.879 15.4368 16.9959 14.96 16.9993H9.83C9.56609 16.9991 9.30474 17.0511 9.06103 17.1524C8.81732 17.2536 8.59606 17.4021 8.41 17.5893L7 18.9993M2 13.9993L8 19.9993" stroke="#56C595" stroke-width="1.5" stroke-linecap="round" stroke-linejoin="round"/>
</svg>
