<svg width="48" height="48" viewBox="0 0 48 48" fill="none" xmlns="http://www.w3.org/2000/svg">
<path d="M14.0002 32V44M26.0002 38V44M20.0002 20V20.4C21.3118 20.9044 22.4048 21.8532 23.0886 23.081C23.7723 24.3087 24.0034 25.7375 23.7415 27.1182C23.4797 28.4989 22.7415 29.7438 21.6557 30.636C20.5699 31.5281 19.2054 32.0109 17.8002 32H10.0002C8.61173 31.9655 7.27825 31.4503 6.2272 30.5424C5.17616 29.6344 4.47265 28.39 4.23666 27.0213C4.00068 25.6526 4.24685 24.2444 4.93317 23.037C5.61949 21.8295 6.70346 20.8975 8.00019 20.4V20C8.00019 18.4087 8.63233 16.8826 9.75755 15.7574C10.8828 14.6321 12.4089 14 14.0002 14C15.5915 14 17.1176 14.6321 18.2428 15.7574C19.3681 16.8826 20.0002 18.4087 20.0002 20Z" stroke="black" stroke-width="3" stroke-linecap="round" stroke-linejoin="round"/>
<path d="M24.0002 38H40.6002C40.9916 37.9945 41.3729 37.8742 41.6966 37.6541C42.0204 37.434 42.2724 37.1237 42.4215 36.7617C42.5705 36.3997 42.6101 36.0019 42.5352 35.6176C42.4603 35.2334 42.2743 34.8795 42.0002 34.6L36.0002 28H36.6002C36.9916 27.9945 37.3729 27.8742 37.6966 27.6541C38.0204 27.434 38.2724 27.1237 38.4215 26.7617C38.5705 26.3997 38.6101 26.0019 38.5352 25.6176C38.4603 25.2334 38.2743 24.8795 38.0002 24.6L32.0002 18H32.4002C32.8087 18.0369 33.2187 17.9472 33.5745 17.7432C33.9303 17.5393 34.2149 17.2308 34.3895 16.8597C34.5642 16.4886 34.6205 16.0727 34.5508 15.6685C34.4812 15.2643 34.289 14.8913 34.0002 14.6L26.0002 6L23.2002 9" stroke="black" stroke-width="3" stroke-linecap="round" stroke-linejoin="round"/>
</svg>
