<svg width="37" height="36" viewBox="0 0 37 36" fill="none" xmlns="http://www.w3.org/2000/svg">
<path d="M15.4985 7.75756C15.4985 5.67256 13.133 4.01806 10.2485 4.49956C9.90886 4.5561 9.584 4.66154 9.27384 4.80843M21.899 7.75756C21.899 5.67256 24.2645 4.01806 27.149 4.49956C31.3835 5.20456 33.3185 13.5086 33.149 14.9996C33.029 16.0541 30.5615 17.5826 27.665 16.4996C25.7735 15.7916 24.8825 14.3246 24.3065 12.7496M12.4985 20.9996V21.7496M24.4985 20.9996V21.7496M11.8721 15.0737C11.3182 15.6707 10.6177 16.1682 9.73251 16.4996C6.83601 17.5826 4.36851 16.0541 4.24851 14.9996C4.17631 14.3644 4.48595 12.4932 5.19252 10.4996C5.28071 10.2508 5.37508 10 5.47566 9.74957M17.3735 24.3746H19.6235L18.4985 25.4996L17.3735 24.3746Z" stroke="#AEAEAE" stroke-width="2.25" stroke-linecap="round" stroke-linejoin="round"/>
<path d="M7.13001 16.8706C6.71021 18.4917 6.4985 20.1596 6.50001 21.8341C6.50001 28.0921 11.873 31.5001 18.5 31.5001C21.2586 31.5001 23.6195 30.9792 25.625 29.8467M29.7605 16.8706C30.257 18.5341 30.5 20.2426 30.5 21.8341C30.5 22.9706 30.3228 24.013 29.9931 24.9581M15.896 7.74763C16.7537 7.57913 17.626 7.49622 18.5 7.50013C19.67 7.50013 20.75 7.66213 21.7415 7.95913" stroke="#AEAEAE" stroke-width="2.25" stroke-linecap="round" stroke-linejoin="round"/>
<path d="M4.25 3.75L32.75 32.25" stroke="#AEAEAE" stroke-width="2.25" stroke-linecap="round"/>
</svg>
