<svg width="25" height="24" viewBox="0 0 25 24" fill="none" xmlns="http://www.w3.org/2000/svg">
<path d="M16.5 21V19C16.5 17.9391 16.0786 16.9217 15.3284 16.1716C14.5783 15.4214 13.5609 15 12.5 15H6.5C5.43913 15 4.42172 15.4214 3.67157 16.1716C2.92143 16.9217 2.5 17.9391 2.5 19V21" stroke="#CD3E3E" stroke-width="1.5" stroke-linecap="round" stroke-linejoin="round"/>
<path d="M9.5 11C11.7091 11 13.5 9.20914 13.5 7C13.5 4.79086 11.7091 3 9.5 3C7.29086 3 5.5 4.79086 5.5 7C5.5 9.20914 7.29086 11 9.5 11Z" stroke="#CD3E3E" stroke-width="1.5" stroke-linecap="round" stroke-linejoin="round"/>
<path d="M17.5 8L22.5 13M22.5 8L17.5 13" stroke="#CD3E3E" stroke-width="1.5" stroke-linecap="round" stroke-linejoin="round"/>
</svg>
