<svg width="25" height="25" viewBox="0 0 25 25" fill="none" xmlns="http://www.w3.org/2000/svg">
<path d="M17.341 16.3292L17.517 16.4962L17.695 16.3292C17.9026 16.1265 18.1509 15.9649 18.4254 15.8537C18.6999 15.7425 18.9952 15.684 19.294 15.6815C19.5927 15.6791 19.889 15.7329 20.1655 15.8397C20.442 15.9464 20.6932 16.1041 20.9044 16.3034C21.1156 16.5027 21.2826 16.7398 21.3957 17.0006C21.5088 17.2615 21.5657 17.541 21.5631 17.8229C21.5604 18.1047 21.4983 18.3833 21.3803 18.6422C21.2624 18.9012 21.0909 19.1354 20.876 19.3311L17.518 22.5L14.159 19.3311C13.737 18.9331 13.5 18.3932 13.5 17.8302C13.5 17.2672 13.737 16.7273 14.159 16.3292C14.581 15.9312 15.1533 15.7075 15.75 15.7075C16.3467 15.7075 16.919 15.9312 17.341 16.3292ZM11.5 14.7642V16.6509C9.9087 16.6509 8.38258 17.2473 7.25736 18.3088C6.13214 19.3704 5.5 20.8101 5.5 22.3113H3.5C3.50002 20.3505 4.30894 18.4667 5.75547 17.0588C7.202 15.6508 9.17259 14.8292 11.25 14.7679L11.5 14.7642ZM11.5 2.5C14.815 2.5 17.5 5.03302 17.5 8.16038C17.5006 9.62503 16.8991 11.0328 15.8221 12.0877C14.7451 13.1427 13.2765 13.7625 11.725 13.817L11.5 13.8208C8.185 13.8208 5.5 11.2877 5.5 8.16038C5.49944 6.69573 6.1009 5.28793 7.17791 4.23301C8.25491 3.17809 9.72354 2.55823 11.275 2.50377L11.5 2.5ZM11.5 4.38679C9.29 4.38679 7.5 6.07547 7.5 8.16038C7.5 10.2453 9.29 11.934 11.5 11.934C13.71 11.934 15.5 10.2453 15.5 8.16038C15.5 6.07547 13.71 4.38679 11.5 4.38679Z" fill="#AEAEAE"/>
</svg>
