<svg width="24" height="24" viewBox="0 0 24 24" fill="none" xmlns="http://www.w3.org/2000/svg">
<path d="M6 9C7.65685 9 9 7.65685 9 6C9 4.34315 7.65685 3 6 3C4.34315 3 3 4.34315 3 6C3 7.65685 4.34315 9 6 9Z" stroke="#56C595" stroke-width="1.5" stroke-linecap="round" stroke-linejoin="round"/>
<path d="M8.12109 8.12L12.0011 12M20.0011 4L8.12109 15.88" stroke="#56C595" stroke-width="1.5" stroke-linecap="round" stroke-linejoin="round"/>
<path d="M6 21C7.65685 21 9 19.6569 9 18C9 16.3431 7.65685 15 6 15C4.34315 15 3 16.3431 3 18C3 19.6569 4.34315 21 6 21Z" stroke="#56C595" stroke-width="1.5" stroke-linecap="round" stroke-linejoin="round"/>
<path d="M14.8008 14.7998L20.0008 19.9998" stroke="#56C595" stroke-width="1.5" stroke-linecap="round" stroke-linejoin="round"/>
</svg>
