<svg width="37" height="36" viewBox="0 0 37 36" fill="none" xmlns="http://www.w3.org/2000/svg">
<path d="M27.5 12C27.5 18.75 18.5 25.5 18.5 25.5C18.5 25.5 9.5 18.75 9.5 12C9.5 9.61305 10.4482 7.32387 12.136 5.63604C13.8239 3.94821 16.1131 3 18.5 3C20.8869 3 23.1761 3.94821 24.864 5.63604C26.5518 7.32387 27.5 9.61305 27.5 12Z" stroke="#AEAEAE" stroke-width="2.25" stroke-linecap="round" stroke-linejoin="round"/>
<path d="M18.5 15C20.1569 15 21.5 13.6569 21.5 12C21.5 10.3431 20.1569 9 18.5 9C16.8431 9 15.5 10.3431 15.5 12C15.5 13.6569 16.8431 15 18.5 15Z" stroke="#AEAEAE" stroke-width="2.25" stroke-linecap="round" stroke-linejoin="round"/>
<path d="M13.7525 21H8C7.6948 21.0166 7.40196 21.1261 7.16069 21.3137C6.91943 21.5014 6.74124 21.7583 6.65 22.05L3.65 31.05C3.5 31.2 3.5 31.35 3.5 31.5C3.5 32.4 4.1 33 5 33H32C32.9 33 33.5 32.4 33.5 31.5C33.5 31.35 33.5 31.2 33.35 31.05L30.35 22.05C30.2588 21.7583 30.0806 21.5014 29.8393 21.3137C29.598 21.1261 29.3052 21.0166 29 21H23.2475" stroke="#AEAEAE" stroke-width="2.25" stroke-linecap="round" stroke-linejoin="round"/>
</svg>
