<svg width="16" height="17" viewBox="0 0 16 17" fill="none" xmlns="http://www.w3.org/2000/svg">
<path d="M11.1375 9.075C11.975 8.2375 12.4375 7.12188 12.4375 5.9375C12.4375 4.75156 11.9766 3.6375 11.1375 2.8C10.3 1.9625 9.18438 1.5 8 1.5C6.81562 1.5 5.7 1.96094 4.8625 2.8C4.025 3.63906 3.5625 4.75156 3.5625 5.9375C3.5625 6.93437 3.88906 7.88125 4.49062 8.65469C4.60469 8.80156 4.72813 8.94062 4.86094 9.075C4.99375 9.20781 5.13437 9.33125 5.27969 9.44531C5.89844 9.92656 6.62813 10.2328 7.40625 10.3359V12H5.625C5.55625 12 5.5 12.0562 5.5 12.125V13.0625C5.5 13.1313 5.55625 13.1875 5.625 13.1875H7.40625V15.375C7.40625 15.4438 7.4625 15.5 7.53125 15.5H8.46875C8.5375 15.5 8.59375 15.4438 8.59375 15.375V13.1875H10.375C10.4438 13.1875 10.5 13.1313 10.5 13.0625V12.125C10.5 12.0562 10.4438 12 10.375 12H8.59375V10.3359C9.55469 10.2078 10.4406 9.77187 11.1375 9.075ZM8 9.1875C7.13125 9.1875 6.31719 8.85 5.70156 8.23594C5.0875 7.62188 4.75 6.80625 4.75 5.9375C4.75 5.06875 5.0875 4.25469 5.70156 3.63906C6.31562 3.02344 7.13125 2.6875 8 2.6875C8.86875 2.6875 9.68281 3.025 10.2984 3.63906C10.9125 4.25312 11.25 5.06875 11.25 5.9375C11.25 6.80625 10.9125 7.62031 10.2984 8.23594C9.68281 8.85 8.86875 9.1875 8 9.1875Z" fill="#56C595"/>
</svg>
