<svg width="18" height="18" viewBox="0 0 18 18" fill="none" xmlns="http://www.w3.org/2000/svg">
<g id="ic:edit">
<path id="Vector" d="M8.99961 14.6898H15.3996M11.1329 4.02314L13.2663 6.15648M12.1996 2.95648C12.4825 2.67358 12.8662 2.51465 13.2663 2.51465C13.4644 2.51465 13.6605 2.55367 13.8436 2.62948C14.0266 2.70528 14.1929 2.8164 14.3329 2.95648C14.473 3.09655 14.5841 3.26285 14.6599 3.44587C14.7358 3.62889 14.7748 3.82504 14.7748 4.02314C14.7748 4.22124 14.7358 4.4174 14.6599 4.60042C14.5841 4.78344 14.473 4.94973 14.3329 5.08981L5.44405 13.9787L2.59961 14.6898L3.31072 11.8454L12.1996 2.95648Z" stroke="white" stroke-width="1.06667" stroke-linecap="round" stroke-linejoin="round"/>
</g>
</svg>
