<svg width="24" height="24" viewBox="0 0 24 24" fill="none" xmlns="http://www.w3.org/2000/svg">
<path d="M8.63953 13.5L6.58953 11.46M15.3395 14.5L12.8795 12.04M2.26953 21.2C2.26953 21.2 12.1395 17.7 14.9995 14.84C15.4178 14.4224 15.7497 13.9265 15.9763 13.3807C16.2029 12.8348 16.3198 12.2496 16.3203 11.6586C16.3207 11.0675 16.2048 10.4822 15.979 9.93594C15.7533 9.38971 15.4221 8.89329 15.0045 8.47503C14.5869 8.05677 14.091 7.72486 13.5452 7.49825C12.9993 7.27164 12.4141 7.15476 11.8231 7.1543C11.232 7.15383 10.6467 7.26979 10.1004 7.49554C9.55421 7.7213 9.05779 8.05243 8.63953 8.47003C5.76953 11.34 2.26953 21.2 2.26953 21.2Z" stroke="#6C6C6C" stroke-width="1.5" stroke-linecap="round" stroke-linejoin="round"/>
<path d="M22 8.5C22 8.5 20.67 6.5 18.5 6.5C16.86 6.5 15 8.5 15 8.5C15 8.5 16.33 10.5 18.5 10.5C20.67 10.5 22 8.5 22 8.5Z" stroke="#6C6C6C" stroke-width="1.5" stroke-linecap="round" stroke-linejoin="round"/>
<path d="M15 1.5C15 1.5 13 2.83 13 5C13 7.17 15 8.5 15 8.5C15 8.5 17 6.66 17 5C17 2.83 15 1.5 15 1.5Z" stroke="#6C6C6C" stroke-width="1.5" stroke-linecap="round" stroke-linejoin="round"/>
</svg>
