<svg width="48" height="48" viewBox="0 0 48 48" fill="none" xmlns="http://www.w3.org/2000/svg">
<path d="M12 18C15.3137 18 18 15.3137 18 12C18 8.68629 15.3137 6 12 6C8.68629 6 6 8.68629 6 12C6 15.3137 8.68629 18 12 18Z" stroke="black" stroke-width="3" stroke-linecap="round" stroke-linejoin="round"/>
<path d="M16.2402 16.24L24.0002 24M40.0002 8L16.2402 31.76" stroke="black" stroke-width="3" stroke-linecap="round" stroke-linejoin="round"/>
<path d="M12 42C15.3137 42 18 39.3137 18 36C18 32.6863 15.3137 30 12 30C8.68629 30 6 32.6863 6 36C6 39.3137 8.68629 42 12 42Z" stroke="black" stroke-width="3" stroke-linecap="round" stroke-linejoin="round"/>
<path d="M29.5996 29.5996L39.9996 39.9996" stroke="black" stroke-width="3" stroke-linecap="round" stroke-linejoin="round"/>
</svg>
