<svg width="22" height="23" viewBox="0 0 22 23" fill="none" xmlns="http://www.w3.org/2000/svg">
<g id="Group">
<path id="Vector" d="M8.88061 9.38C8.58587 9.65465 8.34946 9.98585 8.18549 10.3538C8.02152 10.7218 7.93336 11.1191 7.92625 11.5219C7.91914 11.9247 7.99324 12.3248 8.14412 12.6984C8.29501 13.0719 8.51959 13.4113 8.80446 13.6962C9.08934 13.981 9.42867 14.2056 9.80222 14.3565C10.1758 14.5074 10.5759 14.5815 10.9787 14.5744C11.3815 14.5673 11.7788 14.4791 12.1468 14.3151C12.5148 14.1512 12.846 13.9147 13.1206 13.62M9.73061 4.58C10.1519 4.52751 10.576 4.50079 11.0006 4.5C18.0006 4.5 21.0006 11.5 21.0006 11.5C20.5535 12.4571 19.9928 13.3569 19.3306 14.18" stroke="#F1F1F1" stroke-width="2" stroke-linecap="round" stroke-linejoin="round"/>
<path id="Vector_2" d="M5.61 6.11C3.62125 7.46462 2.02987 9.32526 1 11.5C1 11.5 4 18.5 11 18.5C12.9159 18.5051 14.7908 17.9451 16.39 16.89M1 1.5L21 21.5" stroke="#F1F1F1" stroke-width="2" stroke-linecap="round" stroke-linejoin="round"/>
</g>
</svg>
