<svg width="24" height="24" viewBox="0 0 24 24" fill="none" xmlns="http://www.w3.org/2000/svg">
<path d="M13.2494 2H16.4344C16.9434 2 17.4414 2.141 17.8744 2.408L20.6424 4.111C20.7516 4.17814 20.8417 4.27213 20.9042 4.38399C20.9667 4.49585 20.9995 4.62186 20.9994 4.75V6.25C20.9994 6.84674 20.7624 7.41903 20.3404 7.84099C19.9185 8.26295 19.3462 8.5 18.7494 8.5H18.4994V17.547C19.4964 17.681 20.1944 18.102 20.5944 18.822C20.8174 19.225 20.9124 19.662 20.9564 20.065C20.9994 20.456 20.9994 20.865 20.9994 21.225V21.25C20.9994 21.4489 20.9204 21.6397 20.7798 21.7803C20.6391 21.921 20.4483 22 20.2494 22H5.83243C4.99335 22.0007 4.17721 21.7261 3.50926 21.2183C2.84131 20.7104 2.35845 19.9975 2.13478 19.1887C1.91111 18.38 1.959 17.5202 2.27108 16.7414C2.58317 15.9625 3.14222 15.3075 3.86243 14.877C4.03309 14.7746 4.23744 14.7442 4.43051 14.7925C4.62358 14.8408 4.78955 14.9638 4.89193 15.1345C4.9943 15.3052 5.02468 15.5095 4.97639 15.7026C4.9281 15.8956 4.80509 16.0616 4.63443 16.164C4.1959 16.4259 3.85543 16.8245 3.66529 17.2985C3.47515 17.7726 3.44585 18.296 3.58187 18.7883C3.7179 19.2806 4.01174 19.7147 4.4183 20.0239C4.82485 20.3332 5.32165 20.5004 5.83243 20.5C6.15143 20.5 6.34943 20.417 6.48143 20.324C6.62043 20.226 6.72943 20.086 6.81243 19.917C6.91723 19.7007 6.98065 19.4666 6.99943 19.227V19.192L7.00343 19.049C7.03334 18.3144 7.12027 17.5832 7.26343 16.862C7.52343 15.571 8.06043 13.894 9.21543 12.723C10.0634 11.863 10.5244 10.604 10.7624 9.359C10.9994 8.13 10.9994 7.008 10.9994 6.5V4.25C10.9994 3.65326 11.2365 3.08097 11.6584 2.65901C12.0804 2.23705 12.6527 2 13.2494 2ZM8.49943 19.276V19.282L8.49843 19.292L8.49643 19.32C8.48688 19.4475 8.47018 19.5744 8.44643 19.7C8.40743 19.913 8.33443 20.2 8.19643 20.5H15.4464C15.3564 20.006 15.1064 19.494 14.4334 19.18C14.28 19.113 14.1176 19.0686 13.9514 19.048C13.7191 19.0121 13.4845 18.9937 13.2494 18.993L12.9664 18.997L12.8254 18.999H12.7654C12.6651 19.004 12.5647 18.9888 12.4704 18.9543C12.376 18.9198 12.2895 18.8667 12.2161 18.7982C12.1427 18.7296 12.0837 18.647 12.0428 18.5552C12.0019 18.4635 11.9799 18.3644 11.978 18.2639C11.9762 18.1635 11.9945 18.0637 12.0319 17.9704C12.0694 17.8772 12.1252 17.7925 12.196 17.7212C12.2668 17.6499 12.3512 17.5936 12.4443 17.5556C12.5373 17.5176 12.637 17.4987 12.7374 17.5L12.7994 17.499L12.9424 17.497L13.2494 17.493C13.4844 17.493 13.7444 17.509 13.9994 17.54V15.253C13.9994 15.0541 14.0784 14.8633 14.2191 14.7227C14.3598 14.582 14.5505 14.503 14.7494 14.503C14.9483 14.503 15.1391 14.582 15.2798 14.7227C15.4204 14.8633 15.4994 15.0541 15.4994 15.253V18.057C16.5644 18.739 16.8734 19.76 16.9624 20.5H19.4864C19.4819 20.4098 19.4749 20.3198 19.4654 20.23C19.4324 19.929 19.3714 19.71 19.2824 19.55C19.1524 19.316 18.8494 19 17.7494 19C17.5505 19 17.3597 18.921 17.2191 18.7803C17.0784 18.6397 16.9994 18.4489 16.9994 18.25V7.75C16.9994 7.55109 17.0784 7.36032 17.2191 7.21967C17.3597 7.07902 17.5505 7 17.7494 7H18.7494C18.9483 7 19.1391 6.92098 19.2798 6.78033C19.4204 6.63968 19.4994 6.44891 19.4994 6.25V5.17L17.0884 3.685C16.8918 3.56397 16.6654 3.49992 16.4344 3.5H13.2484C13.0497 3.50027 12.8592 3.5794 12.7187 3.72002C12.5783 3.86065 12.4994 4.05126 12.4994 4.25V6.482C12.5052 6.68415 12.5772 6.87881 12.7044 7.036C12.8054 7.15 12.9644 7.25 13.2494 7.25C13.5364 7.25 13.7024 7.149 13.8054 7.031C13.9374 6.86673 14.0062 6.66062 13.9994 6.45C13.9994 6.25109 14.0784 6.06032 14.2191 5.91967C14.3598 5.77902 14.5505 5.7 14.7494 5.7C14.9483 5.7 15.1391 5.77902 15.2798 5.91967C15.4204 6.06032 15.4994 6.25109 15.4994 6.45C15.4994 7.004 15.3224 7.575 14.9334 8.019C14.5334 8.476 13.9494 8.75 13.2494 8.75C12.9573 8.75249 12.6673 8.70025 12.3944 8.596C12.355 8.94621 12.3023 9.29479 12.2364 9.641C11.9744 11.007 11.4354 12.609 10.2834 13.777C9.43843 14.633 8.97543 15.957 8.73443 17.157C8.60009 17.8361 8.52149 18.5251 8.49943 19.217V19.276Z" fill="black"/>
</svg>
