<svg width="22" height="20" viewBox="0 0 22 20" fill="none" xmlns="http://www.w3.org/2000/svg">
<g id="Group">
<path id="Vector" d="M2.4 15.9998H11C13.1217 15.9998 15.1566 15.157 16.6569 13.6567C18.1571 12.1564 19 10.1216 19 7.99982V4.99982C19.0023 4.14773 18.7323 3.31719 18.2296 2.62921C17.7269 1.94124 17.0175 1.43178 16.205 1.17509C15.3925 0.918387 14.5193 0.927859 13.7125 1.20212C12.9058 1.47638 12.2077 2.0011 11.72 2.69982L1 17.9998" stroke="#AEAEAE" stroke-width="1.5" stroke-linecap="round" stroke-linejoin="round"/>
<path id="Vector_2" d="M19 5L21 5.5L19 6M9 16V19M13 15.75V19M6 16C7.23312 15.9999 8.43627 15.6199 9.44573 14.9117C10.4552 14.2035 11.2219 13.2014 11.6416 12.0419C12.0612 10.8824 12.1134 9.62175 11.7911 8.43151C11.4687 7.24127 10.7874 6.17926 9.84 5.39" stroke="#AEAEAE" stroke-width="1.5" stroke-linecap="round" stroke-linejoin="round"/>
</g>
</svg>
