<svg width="20" height="20" viewBox="0 0 20 20" fill="none" xmlns="http://www.w3.org/2000/svg">
<path d="M12.5003 1.66699H7.50033C7.04009 1.66699 6.66699 2.04009 6.66699 2.50033V4.16699C6.66699 4.62723 7.04009 5.00033 7.50033 5.00033H12.5003C12.9606 5.00033 13.3337 4.62723 13.3337 4.16699V2.50033C13.3337 2.04009 12.9606 1.66699 12.5003 1.66699Z" stroke="#56C595" stroke-width="1.25" stroke-linecap="round" stroke-linejoin="round"/>
<path d="M13.334 3.3335H15.0007C15.4427 3.3335 15.8666 3.50909 16.1792 3.82165C16.4917 4.13421 16.6673 4.55814 16.6673 5.00016V16.6668C16.6673 17.1089 16.4917 17.5328 16.1792 17.8453C15.8666 18.1579 15.4427 18.3335 15.0007 18.3335H5.00065C4.55862 18.3335 4.1347 18.1579 3.82214 17.8453C3.50958 17.5328 3.33398 17.1089 3.33398 16.6668V5.00016C3.33398 4.55814 3.50958 4.13421 3.82214 3.82165C4.1347 3.50909 4.55862 3.3335 5.00065 3.3335H6.66732" stroke="#56C595" stroke-width="1.25" stroke-linecap="round" stroke-linejoin="round"/>
<path d="M7.50098 11.6672L9.16764 13.3338L12.501 10.0005" stroke="#56C595" stroke-width="1.25" stroke-linecap="round" stroke-linejoin="round"/>
</svg>
