<svg width="20" height="20" viewBox="0 0 20 20" fill="none" xmlns="http://www.w3.org/2000/svg">
<path d="M12.499 15.0003C12.499 14.6025 12.341 13.3876 12.0597 13.1063C11.7784 12.825 11.3968 12.667 10.999 12.667H6.49902C6.1012 12.667 5.71967 12.825 5.43836 13.1063C5.15706 13.3876 4.99902 14.6025 4.99902 15.0003" stroke="#56C595" stroke-width="1.25" stroke-linecap="round" stroke-linejoin="round"/>
<path d="M16.666 12.5002V16.6668C16.666 17.5873 15.9198 18.3335 14.9993 18.3335H3.33268C2.41221 18.3335 1.66602 17.5873 1.66602 16.6668V5.00016C1.66602 4.07969 2.41221 3.3335 3.33268 3.3335H14.9993C14.9993 3.3335 16.666 3.3335 16.666 5.00016" stroke="#56C595" stroke-width="1.25" stroke-linecap="round" stroke-linejoin="round"/>
<path d="M8.75 10.0835C9.57843 10.0835 10.25 9.41192 10.25 8.5835C10.25 7.75507 9.57843 7.0835 8.75 7.0835C7.92157 7.0835 7.25 7.75507 7.25 8.5835C7.25 9.41192 7.92157 10.0835 8.75 10.0835Z" stroke="#56C595" stroke-width="1.25" stroke-linecap="round" stroke-linejoin="round"/>
<path d="M5.83301 1.66699V3.33366M12.4997 1.66699V3.33366" stroke="#56C595" stroke-width="1.25" stroke-linecap="round" stroke-linejoin="round"/>
<path d="M18.2282 6.771L14.6865 10.3127M14.6865 6.771L18.2282 10.3127" stroke="#56C595" stroke-width="1.25" stroke-linecap="round" stroke-linejoin="round"/>
</svg>
