<svg width="14" height="11" viewBox="0 0 14 11" fill="none" xmlns="http://www.w3.org/2000/svg">
<path d="M4.28441 8.41816L1.40992 5.54363C1.25504 5.38874 1.04496 5.30173 0.825914 5.30173C0.606868 5.30173 0.396794 5.38874 0.241905 5.54363C0.0870157 5.69853 0 5.9086 0 6.12765C0 6.23611 0.0213631 6.34351 0.0628692 6.44372C0.104375 6.54393 0.165212 6.63498 0.241905 6.71167L3.70454 10.1744C4.02761 10.4974 4.54949 10.4974 4.87256 10.1744L13.6369 1.40994C13.7917 1.25505 13.8788 1.04498 13.8788 0.825927C13.8788 0.606877 13.7917 0.3968 13.6369 0.241908C13.482 0.0870172 13.2719 0 13.0528 0C12.8338 0 12.6237 0.0870172 12.4688 0.241908L4.28441 8.41816Z" fill="white"/>
</svg>
