<svg width="17" height="17" viewBox="0 0 17 17" fill="none" xmlns="http://www.w3.org/2000/svg">
<path d="M10.9167 11.8333H13.5834M2.91673 9.16668H5.5834M2.91673 11.1667V9.58001C2.91673 8.16668 2.23006 7.50001 2.25006 5.83334C2.27006 4.02001 3.2434 1.83334 5.25006 1.83334C6.49673 1.83334 6.91673 3.03334 6.91673 4.16668C6.91673 6.24001 5.5834 7.94001 5.5834 9.95334V11.1667C5.5834 11.5203 5.44292 11.8594 5.19287 12.1095C4.94282 12.3595 4.60368 12.5 4.25006 12.5C3.89644 12.5 3.5573 12.3595 3.30725 12.1095C3.0572 11.8594 2.91673 11.5203 2.91673 11.1667ZM13.5834 13.8333V12.2467C13.5834 10.8333 14.2701 10.1667 14.2501 8.50001C14.2301 6.68668 13.2567 4.50001 11.2501 4.50001C10.0034 4.50001 9.5834 5.70001 9.5834 6.83334C9.5834 8.90668 10.9167 10.6067 10.9167 12.62V13.8333C10.9167 14.187 11.0572 14.5261 11.3073 14.7762C11.5573 15.0262 11.8964 15.1667 12.2501 15.1667C12.6037 15.1667 12.9428 15.0262 13.1929 14.7762C13.4429 14.5261 13.5834 14.187 13.5834 13.8333Z" stroke="#56C595" stroke-linecap="round" stroke-linejoin="round"/>
</svg>
