<svg width="24" height="24" viewBox="0 0 24 24" fill="none" xmlns="http://www.w3.org/2000/svg">
<path d="M10.9981 5.99805C12.2737 5.99811 13.5176 6.39544 14.557 7.13485C15.5964 7.87427 16.3797 8.91904 16.7981 10.124L16.8731 10.357L16.9171 10.501H19.2471C19.9473 10.501 20.6211 10.7682 21.131 11.248C21.6409 11.7278 21.9486 12.3842 21.9911 13.083L21.9961 13.25V14.25C21.9958 14.6891 21.8306 15.1119 21.5331 15.4348C21.2356 15.7577 20.8276 15.9569 20.3901 15.993L20.2471 15.998H18.6211L18.8621 16.582C19.0287 16.9867 19.0377 17.4391 18.8872 17.8501C18.7367 18.261 18.4377 18.6007 18.0491 18.802L17.9121 18.866C17.7537 18.9315 17.5866 18.9732 17.4161 18.99L17.2451 18.998H15.4581C15.1526 18.9979 14.8525 18.9178 14.5876 18.7657C14.3227 18.6136 14.1022 18.3948 13.9481 18.131L13.8761 17.994L13.3371 16.851L13.3911 16.844C11.9911 17.03 10.5741 17.052 9.17009 16.91L8.67309 16.853L8.13809 17.989C7.99675 18.2895 7.77286 18.5435 7.49256 18.7215C7.21225 18.8994 6.88711 18.994 6.55509 18.994H4.75109C4.46371 18.9942 4.18072 18.9235 3.92715 18.7882C3.67359 18.653 3.45726 18.4573 3.2973 18.2185C3.13734 17.9798 3.03867 17.7053 3.01003 17.4193C2.9814 17.1334 3.02366 16.8448 3.13309 16.579L3.56609 15.529C3.08677 15.2405 2.69028 14.8329 2.41516 14.3457C2.14005 13.8586 1.99568 13.3085 1.99609 12.749C1.99634 12.568 2.06209 12.3931 2.18119 12.2567C2.30029 12.1204 2.46471 12.0317 2.64409 12.007L2.74609 12H4.62609L5.12309 10.357C5.50478 9.09612 6.28209 7.99149 7.34011 7.20649C8.39812 6.42148 9.68067 5.99779 10.9981 5.99805ZM17.7751 15.691C17.0041 16.001 16.2161 16.256 15.4191 16.456L14.8701 16.585L15.2321 17.355C15.2563 17.4069 15.2976 17.449 15.3491 17.474L15.4021 17.492L15.4581 17.499H17.2451C17.2804 17.499 17.3154 17.4915 17.3476 17.477C17.3798 17.4625 17.4086 17.4413 17.432 17.4148C17.4555 17.3883 17.473 17.3572 17.4836 17.3235C17.4941 17.2897 17.4973 17.2541 17.4931 17.219L17.4761 17.154L16.9981 15.998H16.9551L17.3661 15.85L17.7751 15.691ZM4.22309 15.691L4.61309 15.843L5.00109 15.984L4.51909 17.15C4.50347 17.1881 4.49747 17.2294 4.50162 17.2703C4.50577 17.3112 4.51994 17.3504 4.54289 17.3846C4.56583 17.4187 4.59683 17.4466 4.63315 17.4659C4.66947 17.4852 4.70998 17.4952 4.75109 17.495H6.55509L6.61209 17.488C6.64895 17.4796 6.68339 17.4628 6.71284 17.4391C6.74229 17.4154 6.76597 17.3853 6.78209 17.351L7.14109 16.588L7.18509 16.598C6.17377 16.3809 5.18284 16.0778 4.22309 15.692V15.691ZM10.9981 7.49705C10.0399 7.49704 9.10519 7.79382 8.3225 8.3466C7.5398 8.89937 6.94753 9.681 6.62709 10.584L6.55909 10.791L5.42309 14.541L5.58609 14.6C8.95597 15.7568 12.6078 15.8034 16.0061 14.733L16.4121 14.6L16.5741 14.541L15.4381 10.791C15.1707 9.90943 14.647 9.12736 13.9335 8.54448C13.2201 7.96159 12.3493 7.60427 11.4321 7.51805L11.2161 7.50205L10.9981 7.49705ZM4.02109 13.997L4.17209 13.497L3.66509 13.499L3.69009 13.551C3.77609 13.717 3.88909 13.867 4.02109 13.997ZM17.3711 12L18.1271 14.498L20.2471 14.499C20.3033 14.499 20.3578 14.48 20.4019 14.4452C20.446 14.4104 20.4771 14.3617 20.4901 14.307L20.4971 14.249V13.25C20.497 12.9408 20.3822 12.6425 20.175 12.4129C19.9677 12.1833 19.6828 12.0387 19.3751 12.007L19.2471 12.001H17.3711V12Z" fill="#AEAEAE"/>
</svg>
