<svg width="20" height="20" viewBox="0 0 20 20" fill="none" xmlns="http://www.w3.org/2000/svg">
<path d="M17.5 6.24984V4.99984C17.5 4.55781 17.3244 4.13389 17.0118 3.82133C16.6993 3.50877 16.2754 3.33317 15.8333 3.33317H4.16667C3.72464 3.33317 3.30072 3.50877 2.98816 3.82133C2.67559 4.13389 2.5 4.55781 2.5 4.99984V16.6665C2.5 17.1085 2.67559 17.5325 2.98816 17.845C3.30072 18.1576 3.72464 18.3332 4.16667 18.3332H7.08333M13.3333 1.6665V4.99984M6.66667 1.6665V4.99984M2.5 8.33317H6.66667M14.5833 14.5832L13.3333 13.5415V11.6665" stroke="#FFB179" stroke-width="1.25" stroke-linecap="round" stroke-linejoin="round"/>
<path d="M18.333 13.3335C18.333 14.6596 17.8062 15.9313 16.8685 16.869C15.9309 17.8067 14.6591 18.3335 13.333 18.3335C12.0069 18.3335 10.7352 17.8067 9.79747 16.869C8.85979 15.9313 8.33301 14.6596 8.33301 13.3335C8.33301 12.0074 8.85979 10.7356 9.79747 9.79796C10.7352 8.86028 12.0069 8.3335 13.333 8.3335C14.6591 8.3335 15.9309 8.86028 16.8685 9.79796C17.8062 10.7356 18.333 12.0074 18.333 13.3335Z" stroke="#FFB179" stroke-width="1.25" stroke-linecap="round" stroke-linejoin="round"/>
</svg>
