<svg width="24" height="24" viewBox="0 0 24 24" fill="none" xmlns="http://www.w3.org/2000/svg">
<path d="M15.4914 3.507C15.0816 3.54465 14.7008 3.73403 14.4235 4.03799C14.1461 4.34195 13.9924 4.73855 13.9924 5.15V10C13.9924 10.1989 13.9134 10.3897 13.7727 10.5303C13.632 10.671 13.4413 10.75 13.2424 10.75C11.7994 10.75 10.7854 11.338 10.0354 12.238C9.26337 13.166 8.76037 14.444 8.44537 15.795C8.13237 17.138 8.01837 18.491 7.98437 19.517C7.97301 19.8445 7.96901 20.1723 7.97237 20.5H14.9924V19.75C14.9924 19.1534 14.7555 18.5813 14.3337 18.1594C13.912 17.7374 13.3399 17.5003 12.7434 17.5H11.4934C11.2945 17.5 11.1037 17.421 10.963 17.2803C10.8224 17.1397 10.7434 16.9489 10.7434 16.75C10.7434 16.5511 10.8224 16.3603 10.963 16.2197C11.1037 16.079 11.2945 16 11.4934 16H12.7434C13.2357 16.0001 13.7232 16.0972 14.178 16.2858C14.6328 16.4743 15.046 16.7505 15.394 17.0988C15.7421 17.447 16.0181 17.8603 16.2064 18.3152C16.3947 18.7701 16.4915 19.2577 16.4914 19.75V20.5H17.2414C17.4403 20.5 17.631 20.421 17.7717 20.2803C17.9124 20.1397 17.9914 19.9489 17.9914 19.75V9.75C17.9914 9.55143 18.0701 9.36097 18.2103 9.22038C18.3506 9.07978 18.5408 9.00053 18.7394 9H19.2454C19.4681 8.99997 19.6868 8.94041 19.8789 8.82748C20.0709 8.71455 20.2292 8.55236 20.3375 8.35769C20.4458 8.16301 20.5001 7.94294 20.4948 7.72024C20.4895 7.49753 20.4248 7.28029 20.3074 7.091L19.6874 6.091C19.5753 5.91043 19.4191 5.76139 19.2335 5.65798C19.0478 5.55457 18.8389 5.5002 18.6264 5.5H16.2404C16.0415 5.5 15.8507 5.42098 15.71 5.28033C15.5694 5.13968 15.4904 4.94891 15.4904 4.75L15.4914 3.507ZM6.47337 20.5C6.47037 20.216 6.47237 19.866 6.48537 19.467C6.52137 18.384 6.64237 16.925 6.98537 15.455C7.32537 13.993 7.90037 12.459 8.88437 11.278C9.75637 10.231 10.9394 9.477 12.4944 9.293V5.15C12.4944 4.31526 12.8257 3.51465 13.4156 2.92403C14.0054 2.3334 14.8056 2.00106 15.6404 2C16.3864 2 16.9904 2.604 16.9904 3.35V4H18.6264C19.5764 4 20.4604 4.492 20.9614 5.3L21.5814 6.3C22.6734 8.063 21.4974 10.32 19.4884 10.49V19.75C19.4884 20.3462 19.2517 20.9181 18.8304 21.3399C18.4091 21.7618 17.8376 21.9992 17.2414 22H5.79437C5.05417 22.0002 4.33003 21.7841 3.71104 21.3783C3.09204 20.9724 2.60518 20.3944 2.31033 19.7155C2.01548 19.0365 1.92551 18.2862 2.05149 17.5568C2.17746 16.8274 2.51388 16.1507 3.01937 15.61L4.15437 14.393C4.69484 13.8134 4.98927 13.0466 4.97566 12.2543C4.96204 11.4619 4.64144 10.7057 4.08137 10.145L2.96837 9.03C2.83589 8.88783 2.76377 8.69978 2.76719 8.50548C2.77062 8.31118 2.84933 8.12579 2.98675 7.98838C3.12416 7.85097 3.30955 7.77225 3.50385 7.76883C3.69815 7.7654 3.88619 7.83752 4.02837 7.97L5.14237 9.084C5.97775 9.9194 6.45612 11.0465 6.47664 12.2278C6.49716 13.409 6.05823 14.5521 5.25237 15.416L4.11637 16.633C3.81144 16.9606 3.60872 17.3701 3.53306 17.8112C3.45741 18.2524 3.5121 18.706 3.69045 19.1165C3.86879 19.527 4.16303 19.8765 4.53709 20.1223C4.91116 20.368 5.3488 20.4993 5.79637 20.5H6.47337Z" fill="black"/>
</svg>
