<svg width="20" height="20" viewBox="0 0 20 20" fill="none" xmlns="http://www.w3.org/2000/svg">
<path d="M14.5517 16.6665H6.18583V7.49984L11.2635 2.48532C11.345 2.40483 11.4762 2.40524 11.5572 2.48624L11.7792 2.70818C11.8547 2.78429 11.9186 2.88151 11.9708 2.99984C12.0225 3.11818 12.0483 3.22707 12.0483 3.32651V3.43644C12.0483 3.45089 12.0468 3.4653 12.0438 3.47944L11.2488 7.24851C11.2215 7.37802 11.3203 7.49984 11.4527 7.49984H16.9875C17.3358 7.49984 17.6469 7.63707 17.9208 7.91151C18.1958 8.18596 18.3333 8.49734 18.3333 8.84568V9.87151C18.3333 9.94762 18.325 10.0304 18.3083 10.1198C18.2906 10.2098 18.2678 10.2926 18.24 10.3682L15.965 15.7623C15.8506 16.019 15.6581 16.2337 15.3875 16.4065C15.1175 16.5798 14.8389 16.6665 14.5517 16.6665ZM7.01917 15.6248C7.01917 15.7399 7.11244 15.8332 7.2275 15.8332H14.5517C14.6689 15.8332 14.7889 15.8012 14.9117 15.7373C15.0344 15.6729 15.1281 15.566 15.1925 15.4165L17.4833 10.039C17.4943 10.0132 17.5 9.98538 17.5 9.95732V8.84568C17.5 8.69623 17.4519 8.57345 17.3558 8.47734C17.2597 8.38123 17.1369 8.33318 16.9875 8.33318H10.4171C10.2847 8.33318 10.1859 8.2112 10.2133 8.08163L10.9803 4.46403C11.0232 4.26158 10.7767 4.12717 10.6298 4.27294L7.08076 7.79456C7.04134 7.83368 7.01917 7.88691 7.01917 7.94244V15.6248ZM6.18583 7.49984V8.12484C6.18583 8.2399 6.09256 8.33318 5.9775 8.33318H3.54167C3.42661 8.33318 3.33333 8.42645 3.33333 8.54151V15.6248C3.33333 15.7399 3.42661 15.8332 3.54167 15.8332H5.9775C6.09256 15.8332 6.18583 15.9265 6.18583 16.0415V16.6665H2.70833C2.59327 16.6665 2.5 16.5732 2.5 16.4582V7.70818C2.5 7.59312 2.59327 7.49984 2.70833 7.49984H6.18583Z" fill="#56C595"/>
</svg>
