<svg width="25" height="24" viewBox="0 0 25 24" fill="none" xmlns="http://www.w3.org/2000/svg">
<path d="M2.5 2L22.5 22M19.39 13.23C19.4622 12.824 19.499 12.4124 19.5 12V10M5.5 10V12C5.47965 13.3992 5.87912 14.7723 6.64683 15.9422C7.41455 17.1121 8.51528 18.0251 9.80695 18.5633C11.0986 19.1015 12.522 19.2402 13.8932 18.9616C15.2645 18.6829 16.5208 17.9997 17.5 17M15.5 9.34V5C15.4959 4.32637 15.2653 3.67371 14.8452 3.14712C14.425 2.62053 13.8399 2.25067 13.184 2.09708C12.5281 1.9435 11.8396 2.01514 11.2294 2.30047C10.6191 2.58579 10.1227 3.0682 9.82 3.67" stroke="#CD3E3E" stroke-width="1.5" stroke-linecap="round" stroke-linejoin="round"/>
<path d="M9.5 9V12C9.50052 12.593 9.67675 13.1725 10.0064 13.6653C10.3361 14.1582 10.8045 14.5423 11.3523 14.7691C11.9002 14.996 12.5029 15.0554 13.0845 14.9399C13.6661 14.8243 14.2005 14.539 14.62 14.12M12.5 19V22" stroke="#CD3E3E" stroke-width="1.5" stroke-linecap="round" stroke-linejoin="round"/>
</svg>
