<svg width="24" height="24" viewBox="0 0 24 24" fill="none" xmlns="http://www.w3.org/2000/svg">
<path d="M6 8.5C7.65685 8.5 9 7.15685 9 5.5C9 3.84315 7.65685 2.5 6 2.5C4.34315 2.5 3 3.84315 3 5.5C3 7.15685 4.34315 8.5 6 8.5Z" stroke="#6C6C6C" stroke-width="1.5" stroke-linecap="round" stroke-linejoin="round"/>
<path d="M8.12109 7.62L12.0011 11.5M20.0011 3.5L8.12109 15.38" stroke="#6C6C6C" stroke-width="1.5" stroke-linecap="round" stroke-linejoin="round"/>
<path d="M6 20.5C7.65685 20.5 9 19.1569 9 17.5C9 15.8431 7.65685 14.5 6 14.5C4.34315 14.5 3 15.8431 3 17.5C3 19.1569 4.34315 20.5 6 20.5Z" stroke="#6C6C6C" stroke-width="1.5" stroke-linecap="round" stroke-linejoin="round"/>
<path d="M14.8008 14.2998L20.0008 19.4998" stroke="#6C6C6C" stroke-width="1.5" stroke-linecap="round" stroke-linejoin="round"/>
</svg>
