<svg width="24" height="24" viewBox="0 0 24 24" fill="none" xmlns="http://www.w3.org/2000/svg">
<path d="M3 14.5003L8.12 9.38026C8.68207 8.81749 9.44462 8.50096 10.24 8.50026H13C13.5304 8.50026 14.0391 8.71097 14.4142 9.08605C14.7893 9.46112 15 9.96983 15 10.5003C15 11.0307 14.7893 11.5394 14.4142 11.9145C14.0391 12.2895 13.5304 12.5003 13 12.5003H10.5M14.5 11.8203L18.67 6.93026C18.9922 6.57315 19.4389 6.3531 19.9184 6.31537C20.3979 6.27764 20.8736 6.4251 21.2476 6.72742C21.6217 7.02974 21.8657 7.46392 21.9293 7.94064C21.993 8.41736 21.8716 8.90035 21.59 9.29026L17.39 15.2303C17.115 15.6198 16.7512 15.9382 16.3286 16.1591C15.906 16.38 15.4368 16.4969 14.96 16.5003H9.83C9.56609 16.5001 9.30474 16.5521 9.06103 16.6533C8.81732 16.7546 8.59606 16.9031 8.41 17.0903L7 18.5003M2 13.5003L8 19.5003" stroke="#6C6C6C" stroke-width="1.5" stroke-linecap="round" stroke-linejoin="round"/>
</svg>
