<svg width="16" height="17" viewBox="0 0 16 17" fill="none" xmlns="http://www.w3.org/2000/svg">
<path d="M13.3337 14.5002V9.16683C13.3337 8.81321 13.1932 8.47407 12.9431 8.22402C12.6931 7.97397 12.3539 7.8335 12.0003 7.8335H4.00033C3.6467 7.8335 3.30756 7.97397 3.05752 8.22402C2.80747 8.47407 2.66699 8.81321 2.66699 9.16683V14.5002" stroke="#AEAEAE" stroke-linecap="round" stroke-linejoin="round"/>
<path d="M2.66732 11.167C2.66732 11.167 3.00065 10.5003 4.00065 10.5003C5.00065 10.5003 5.66732 11.8337 6.66732 11.8337C7.66732 11.8337 8.33398 10.5003 9.33398 10.5003C10.334 10.5003 11.0007 11.8337 12.0007 11.8337C13.0007 11.8337 13.334 11.167 13.334 11.167M1.33398 14.5003H14.6673M4.66732 5.83366V7.83366M8.00065 5.83366V7.83366M11.334 5.83366V7.83366M4.66732 3.16699H4.67398M8.00065 3.16699H8.00732M11.334 3.16699H11.3407" stroke="#AEAEAE" stroke-linecap="round" stroke-linejoin="round"/>
</svg>
