<svg width="33" height="34" viewBox="0 0 33 34" fill="none" xmlns="http://www.w3.org/2000/svg">
<g id="Group">
<path id="Vector" d="M21 25.9998C21 25.2837 20.7155 23.097 20.2092 22.5906C19.7028 22.0843 19.0161 21.7998 18.3 21.7998H10.2C9.48392 21.7998 8.79716 22.0843 8.29081 22.5906C7.78446 23.097 7.5 25.2837 7.5 25.9998" stroke="#AEAEAE" stroke-width="2.25" stroke-linecap="round" stroke-linejoin="round"/>
<path id="Vector_2" d="M28.5 21.5V29C28.5 30.6569 27.1569 32 25.5 32H4.5C2.84315 32 1.5 30.6569 1.5 29V8C1.5 6.34315 2.84315 5 4.5 5H25.5C25.5 5 28.5 5 28.5 8" stroke="#AEAEAE" stroke-width="2.25" stroke-linecap="round" stroke-linejoin="round"/>
<path id="Vector_3" d="M14.2508 17.15C15.742 17.15 16.9508 15.9412 16.9508 14.45C16.9508 12.9588 15.742 11.75 14.2508 11.75C12.7596 11.75 11.5508 12.9588 11.5508 14.45C11.5508 15.9412 12.7596 17.15 14.2508 17.15Z" stroke="#AEAEAE" stroke-width="2.25" stroke-linecap="round" stroke-linejoin="round"/>
<path id="Vector_4" d="M9 2V5M21 2V5" stroke="#AEAEAE" stroke-width="2.25" stroke-linecap="round" stroke-linejoin="round"/>
<path id="Vector_5" d="M31.3125 11.1875L24.9375 17.5625M24.9375 11.1875L31.3125 17.5625" stroke="#AEAEAE" stroke-width="2.25" stroke-linecap="round" stroke-linejoin="round"/>
</g>
</svg>
