<svg width="24" height="25" viewBox="0 0 24 25" fill="none" xmlns="http://www.w3.org/2000/svg">
<path d="M15.4995 14.4995H14.7095L14.4295 14.2295C15.0544 13.5035 15.5112 12.6483 15.767 11.7251C16.0229 10.8019 16.0715 9.83364 15.9095 8.88949C15.4395 6.10949 13.1195 3.88949 10.3195 3.54949C9.3351 3.42495 8.33527 3.52726 7.39651 3.84858C6.45775 4.16989 5.60493 4.70171 4.90332 5.40332C4.20171 6.10493 3.66989 6.95775 3.34858 7.89651C3.02726 8.83527 2.92495 9.8351 3.04949 10.8195C3.38949 13.6195 5.60949 15.9395 8.38949 16.4095C9.33364 16.5715 10.3019 16.5229 11.2251 16.267C12.1483 16.0112 13.0035 15.5544 13.7295 14.9295L13.9995 15.2095V15.9995L18.2495 20.2495C18.6595 20.6595 19.3295 20.6595 19.7395 20.2495C20.1495 19.8395 20.1495 19.1695 19.7395 18.7595L15.4995 14.4995ZM9.49949 14.4995C7.00949 14.4995 4.99949 12.4895 4.99949 9.99949C4.99949 7.50949 7.00949 5.49949 9.49949 5.49949C11.9895 5.49949 13.9995 7.50949 13.9995 9.99949C13.9995 12.4895 11.9895 14.4995 9.49949 14.4995Z" fill="#EFEFEF"/>
</svg>
