<svg width="20" height="20" viewBox="0 0 20 20" fill="none" xmlns="http://www.w3.org/2000/svg">
<path d="M14.5517 16.6665H6.58667C6.47161 16.6665 6.37833 16.5732 6.37833 16.4582V7.5869C6.37833 7.5312 6.40064 7.47781 6.44028 7.43867L11.4559 2.48548C11.5374 2.40493 11.6688 2.40541 11.7497 2.48657L11.9708 2.70818C12.0469 2.78429 12.1108 2.88151 12.1625 2.99984C12.2142 3.11818 12.24 3.22707 12.24 3.32651V3.43644C12.24 3.45089 12.2385 3.4653 12.2355 3.47944L11.4405 7.24851C11.4132 7.37802 11.512 7.49984 11.6444 7.49984H16.9875C17.3358 7.49984 17.6469 7.63707 17.9208 7.91151C18.1958 8.18596 18.3333 8.49734 18.3333 8.84568V9.87151C18.3333 9.94762 18.3256 10.0304 18.31 10.1198C18.2944 10.2098 18.2711 10.2926 18.24 10.3682L15.965 15.7623C15.8506 16.019 15.6581 16.2337 15.3875 16.4065C15.1175 16.5798 14.8389 16.6665 14.5517 16.6665ZM5.33667 7.49984C5.45173 7.49984 5.545 7.59312 5.545 7.70818V16.4582C5.545 16.5732 5.45173 16.6665 5.33667 16.6665H2.70833C2.59327 16.6665 2.5 16.5732 2.5 16.4582V7.70818C2.5 7.59312 2.59327 7.49984 2.70833 7.49984H5.33667Z" fill="#56C595"/>
</svg>
