<svg width="25" height="24" viewBox="0 0 25 24" fill="none" xmlns="http://www.w3.org/2000/svg">
<g clip-path="url(#clip0_263_10998)">
<path d="M8 12C8.79565 12 9.55871 11.6839 10.1213 11.1213C10.6839 10.5587 11 9.79565 11 9C11 8.20435 10.6839 7.44129 10.1213 6.87868C9.55871 6.31607 8.79565 6 8 6C7.20435 6 6.44129 6.31607 5.87868 6.87868C5.31607 7.44129 5 8.20435 5 9C5 9.79565 5.31607 10.5587 5.87868 11.1213C6.44129 11.6839 7.20435 12 8 12ZM14 8.25C14 8.05109 14.079 7.86032 14.2197 7.71967C14.3603 7.57902 14.5511 7.5 14.75 7.5H20.75C20.9489 7.5 21.1397 7.57902 21.2803 7.71967C21.421 7.86032 21.5 8.05109 21.5 8.25C21.5 8.44891 21.421 8.63968 21.2803 8.78033C21.1397 8.92098 20.9489 9 20.75 9H14.75C14.5511 9 14.3603 8.92098 14.2197 8.78033C14.079 8.63968 14 8.44891 14 8.25ZM14 12C14 11.8011 14.079 11.6103 14.2197 11.4697C14.3603 11.329 14.5511 11.25 14.75 11.25H20.75C20.9489 11.25 21.1397 11.329 21.2803 11.4697C21.421 11.6103 21.5 11.8011 21.5 12C21.5 12.1989 21.421 12.3897 21.2803 12.5303C21.1397 12.671 20.9489 12.75 20.75 12.75H14.75C14.5511 12.75 14.3603 12.671 14.2197 12.5303C14.079 12.3897 14 12.1989 14 12ZM15.5 15.75C15.5 15.5511 15.579 15.3603 15.7197 15.2197C15.8603 15.079 16.0511 15 16.25 15H20.75C20.9489 15 21.1397 15.079 21.2803 15.2197C21.421 15.3603 21.5 15.5511 21.5 15.75C21.5 15.9489 21.421 16.1397 21.2803 16.2803C21.1397 16.421 20.9489 16.5 20.75 16.5H16.25C16.0511 16.5 15.8603 16.421 15.7197 16.2803C15.579 16.1397 15.5 15.9489 15.5 15.75Z" fill="#AEAEAE"/>
<path d="M3.5 3C2.70435 3 1.94129 3.31607 1.37868 3.87868C0.816071 4.44129 0.5 5.20435 0.5 6L0.5 18C0.5 18.7956 0.816071 19.5587 1.37868 20.1213C1.94129 20.6839 2.70435 21 3.5 21H21.5C22.2956 21 23.0587 20.6839 23.6213 20.1213C24.1839 19.5587 24.5 18.7956 24.5 18V6C24.5 5.20435 24.1839 4.44129 23.6213 3.87868C23.0587 3.31607 22.2956 3 21.5 3H3.5ZM2 6C2 5.60218 2.15804 5.22064 2.43934 4.93934C2.72064 4.65804 3.10218 4.5 3.5 4.5H21.5C21.8978 4.5 22.2794 4.65804 22.5607 4.93934C22.842 5.22064 23 5.60218 23 6V18C23 18.3978 22.842 18.7794 22.5607 19.0607C22.2794 19.342 21.8978 19.5 21.5 19.5H13.94C13.979 19.2555 14 19.005 14 18.75C14 15.8505 11.315 13.5 8 13.5C4.871 13.5 2.3 15.597 2.024 18.2715C2.00783 18.1819 1.99979 18.091 2 18V6Z" fill="#AEAEAE"/>
</g>
<defs>
<clipPath id="clip0_263_10998">
<rect width="24" height="24" fill="white" transform="translate(0.5)"/>
</clipPath>
</defs>
</svg>
