<svg width="24" height="24" viewBox="0 0 24 24" fill="none" xmlns="http://www.w3.org/2000/svg">
<path d="M6.99961 15.5V21.5M12.9996 18.5V21.5M9.99961 9.5V9.7C10.6554 9.9522 11.2019 10.4266 11.5438 11.0405C11.8857 11.6544 12.0012 12.3687 11.8703 13.0591C11.7393 13.7494 11.3703 14.3719 10.8274 14.818C10.2845 15.2641 9.60223 15.5054 8.89961 15.5H4.99961C4.30538 15.4827 3.63864 15.2251 3.11311 14.7712C2.58759 14.3172 2.23584 13.695 2.11784 13.0106C1.99985 12.3263 2.12293 11.6222 2.4661 11.0185C2.80926 10.4147 3.35124 9.94875 3.99961 9.7V9.5C3.99961 8.70435 4.31568 7.94129 4.87829 7.37868C5.4409 6.81607 6.20396 6.5 6.99961 6.5C7.79526 6.5 8.55832 6.81607 9.12093 7.37868C9.68354 7.94129 9.99961 8.70435 9.99961 9.5Z" stroke="#6C6C6C" stroke-width="1.5" stroke-linecap="round" stroke-linejoin="round"/>
<path d="M12.0016 18.5H20.3016C20.4973 18.4973 20.6879 18.4371 20.8498 18.3271C21.0117 18.217 21.1377 18.0618 21.2122 17.8808C21.2867 17.6998 21.3065 17.501 21.2691 17.3088C21.2316 17.1167 21.1386 16.9398 21.0016 16.8L18.0016 13.5H18.3016C18.4973 13.4973 18.6879 13.4371 18.8498 13.3271C19.0117 13.217 19.1377 13.0619 19.2122 12.8808C19.2867 12.6998 19.3065 12.501 19.2691 12.3088C19.2316 12.1167 19.1386 11.9398 19.0016 11.8L16.0016 8.5H16.2016C16.4058 8.51843 16.6108 8.47361 16.7887 8.37162C16.9666 8.26963 17.1089 8.1154 17.1962 7.92984C17.2835 7.74428 17.3117 7.53636 17.2769 7.33425C17.2421 7.13215 17.1459 6.94564 17.0016 6.8L13.0016 2.5L11.6016 4" stroke="#6C6C6C" stroke-width="1.5" stroke-linecap="round" stroke-linejoin="round"/>
</svg>
