<svg width="25" height="24" viewBox="0 0 25 24" fill="none" xmlns="http://www.w3.org/2000/svg">
<path d="M4.5 22H18.5C19.0304 22 19.5391 21.7893 19.9142 21.4142C20.2893 21.0391 20.5 20.5304 20.5 20V7.5L15 2H6.5C5.96957 2 5.46086 2.21071 5.08579 2.58579C4.71071 2.96086 4.5 3.46957 4.5 4V7" stroke="black" stroke-width="1.5" stroke-linecap="round" stroke-linejoin="round"/>
<path d="M14.5 2V8H20.5M9.5 18L8 16.5M5.5 17C5.89397 17 6.28407 16.9224 6.64805 16.7716C7.01203 16.6209 7.34274 16.3999 7.62132 16.1213C7.8999 15.8427 8.12087 15.512 8.27164 15.1481C8.4224 14.7841 8.5 14.394 8.5 14C8.5 13.606 8.4224 13.2159 8.27164 12.8519C8.12087 12.488 7.8999 12.1573 7.62132 11.8787C7.34274 11.6001 7.01203 11.3791 6.64805 11.2284C6.28407 11.0776 5.89397 11 5.5 11C4.70435 11 3.94129 11.3161 3.37868 11.8787C2.81607 12.4413 2.5 13.2044 2.5 14C2.5 14.7956 2.81607 15.5587 3.37868 16.1213C3.94129 16.6839 4.70435 17 5.5 17Z" stroke="black" stroke-width="1.5" stroke-linecap="round" stroke-linejoin="round"/>
</svg>
