<svg width="23" height="22" viewBox="0 0 23 22" fill="none" xmlns="http://www.w3.org/2000/svg">
<path d="M10.16 5H13.5C14.0304 5 14.5391 5.21071 14.9142 5.58579C15.2893 5.96086 15.5 6.46957 15.5 7V9.34L16.5 10.34L21.5 7V15M1.5 1L21.5 21M15.5 15C15.5 15.5304 15.2893 16.0391 14.9142 16.4142C14.5391 16.7893 14.0304 17 13.5 17H3.5C2.96957 17 2.46086 16.7893 2.08579 16.4142C1.71071 16.0391 1.5 15.5304 1.5 15V7C1.5 6.46957 1.71071 5.96086 2.08579 5.58579C2.46086 5.21071 2.96957 5 3.5 5H5.5L15.5 15Z" stroke="#AEAEAE" stroke-width="1.5" stroke-linecap="round" stroke-linejoin="round"/>
</svg>
