<svg width="25" height="24" viewBox="0 0 25 24" fill="none" xmlns="http://www.w3.org/2000/svg">
<path d="M2.5 2L22.5 22M10.91 10.41C10.7242 10.5958 10.5036 10.7432 10.2608 10.8438C10.018 10.9444 9.75779 10.9961 9.495 10.9961C9.23221 10.9961 8.97199 10.9444 8.72921 10.8438C8.48642 10.7432 8.26582 10.5958 8.08 10.41C7.89418 10.2242 7.74678 10.0036 7.64621 9.76079C7.54565 9.51801 7.49389 9.25779 7.49389 8.995C7.49389 8.73221 7.54565 8.47199 7.64621 8.22921C7.74678 7.98642 7.89418 7.76582 8.08 7.58M14 13.5L6.5 21M18.5 12L21.5 15" stroke="#AEAEAE" stroke-width="1.5" stroke-linecap="round" stroke-linejoin="round"/>
<path d="M4.09 3.59C3.90358 3.77454 3.75548 3.99412 3.65423 4.2361C3.55298 4.47808 3.50056 4.73769 3.5 5V19C3.5 19.5304 3.71071 20.0391 4.08579 20.4142C4.46086 20.7893 4.96957 21 5.5 21H19.5C20.05 21 20.552 20.78 20.91 20.41M21.5 15V5C21.5 4.46957 21.2893 3.96086 20.9142 3.58579C20.5391 3.21071 20.0304 3 19.5 3H9.5" stroke="#AEAEAE" stroke-width="1.5" stroke-linecap="round" stroke-linejoin="round"/>
</svg>
