<svg width="48" height="48" viewBox="0 0 48 48" fill="none" xmlns="http://www.w3.org/2000/svg">
<g id="Property 1=alarm o">
<path id="Vector" d="M20.6 42C20.9348 42.6089 21.4269 43.1167 22.025 43.4704C22.6231 43.8241 23.3052 44.0107 24 44.0107C24.6948 44.0107 25.3769 43.8241 25.975 43.4704C26.5731 43.1167 27.0652 42.6089 27.4 42M12 16C12 12.8174 13.2643 9.76516 15.5147 7.51472C17.7652 5.26428 20.8174 4 24 4C27.1826 4 30.2348 5.26428 32.4853 7.51472C34.7357 9.76516 36 12.8174 36 16C36 30 42 34 42 34H6C6 34 12 30 12 16Z" stroke="black" stroke-width="3" stroke-linecap="round" stroke-linejoin="round"/>
<circle id="Ellipse 7" cx="44" cy="4" r="4" fill="#56C595"/>
</g>
</svg>
