<?xml version="1.0" standalone="no"?>
<!DOCTYPE svg PUBLIC "-//W3C//DTD SVG 20010904//EN"
 "http://www.w3.org/TR/2001/REC-SVG-20010904/DTD/svg10.dtd">
<svg version="1.0" xmlns="http://www.w3.org/2000/svg"
 width="502.000000pt" height="502.000000pt" viewBox="0 0 502.000000 502.000000"
 preserveAspectRatio="xMidYMid meet">
<metadata>
Created by potrace 1.14, written by Peter Selinger 2001-2017
</metadata>
<g transform="translate(0.000000,502.000000) scale(0.100000,-0.100000)"
fill="#000000" stroke="none">
<path d="M2250 4849 c-19 -4 -38 -5 -43 -2 -4 2 -14 -1 -22 -7 -12 -10 -15
-10 -15 1 0 9 -3 10 -8 4 -8 -11 -15 -13 -66 -17 -20 -1 -36 -5 -36 -9 0 -3
-10 -6 -22 -5 -13 1 -26 -2 -29 -6 -3 -5 -22 -9 -42 -10 -20 -1 -37 -5 -37
-10 0 -5 -6 -8 -12 -7 -22 4 -152 -35 -225 -67 -17 -8 -41 -14 -53 -14 -11 0
-18 -4 -15 -10 3 -5 0 -10 -8 -10 -8 0 -41 -12 -73 -27 -33 -14 -62 -26 -66
-25 -5 1 -8 -1 -8 -6 0 -4 -20 -16 -45 -27 -25 -11 -45 -23 -45 -26 0 -3 -16
-11 -35 -19 -19 -8 -35 -17 -35 -22 0 -4 -4 -8 -9 -8 -12 0 -105 -61 -109 -72
-2 -4 -10 -8 -18 -8 -8 0 -14 -4 -14 -10 0 -5 -7 -10 -15 -10 -8 0 -15 -3 -15
-7 0 -5 -23 -24 -50 -43 -27 -19 -50 -38 -50 -42 0 -5 -7 -8 -16 -8 -8 0 -12
-4 -9 -10 3 -5 1 -10 -5 -10 -6 0 -38 -27 -70 -60 -33 -33 -60 -57 -60 -54 0
3 -11 -8 -25 -24 -14 -16 -39 -45 -56 -63 -57 -61 -149 -177 -149 -188 0 -6
-4 -11 -10 -11 -5 0 -10 -7 -10 -16 0 -8 -4 -13 -8 -10 -5 3 -19 -17 -33 -44
-13 -26 -27 -46 -31 -44 -3 2 -11 -8 -17 -24 -10 -26 -41 -82 -51 -92 -11 -11
-80 -156 -80 -167 0 -7 -5 -13 -10 -13 -6 0 -9 -3 -8 -7 1 -5 -5 -21 -12 -38
-28 -67 -52 -132 -62 -170 -6 -22 -14 -44 -19 -50 -4 -5 -10 -30 -14 -55 -4
-25 -10 -47 -14 -50 -8 -5 -20 -66 -24 -120 -1 -14 -5 -27 -9 -30 -4 -3 -8
-27 -10 -53 -2 -26 -5 -47 -8 -47 -3 0 -7 -24 -10 -52 -5 -78 -4 -517 2 -558
7 -42 16 -95 24 -135 3 -16 6 -40 8 -52 1 -12 5 -25 9 -29 4 -4 7 -21 7 -39 0
-17 5 -36 12 -43 7 -7 9 -12 6 -12 -3 0 2 -28 12 -62 11 -34 16 -66 13 -71 -3
-6 -1 -7 5 -3 8 4 12 0 12 -11 0 -10 16 -57 36 -103 19 -47 36 -89 38 -95 4
-19 91 -190 103 -203 6 -6 15 -22 19 -35 4 -12 10 -24 13 -27 4 -3 24 -33 45
-68 21 -34 42 -62 47 -62 5 0 9 -5 9 -10 0 -14 72 -110 82 -110 4 0 8 -5 8
-11 0 -6 10 -22 22 -36 13 -13 34 -36 48 -51 14 -15 44 -49 67 -74 24 -26 43
-45 43 -42 0 4 17 -11 38 -32 51 -53 122 -116 122 -109 0 3 13 -8 30 -25 16
-17 30 -27 30 -23 0 4 9 -3 20 -15 12 -12 28 -22 36 -22 8 0 13 -4 10 -9 -6
-8 9 -18 28 -19 5 0 12 -4 15 -9 10 -13 69 -53 79 -53 5 0 15 -7 22 -15 7 -8
22 -15 33 -15 11 0 18 -3 14 -6 -6 -6 159 -93 178 -94 6 0 21 -9 34 -19 14
-10 31 -17 38 -14 7 3 13 0 13 -6 0 -6 3 -10 8 -9 7 1 26 -5 67 -22 45 -19
148 -50 170 -52 14 -1 25 -6 25 -9 0 -4 25 -11 55 -14 30 -4 53 -10 51 -14 -3
-4 8 -6 25 -5 16 1 29 -1 29 -5 0 -4 17 -8 38 -10 41 -3 84 -8 92 -11 3 -1 17
-2 33 -2 15 -1 27 -6 27 -12 0 -6 5 -4 10 4 5 8 10 10 10 4 0 -12 4 -12 210
-13 198 0 252 2 269 13 10 7 12 6 6 -4 -6 -10 -4 -11 6 -4 16 9 13 9 95 19 93
11 99 12 102 15 1 1 10 3 20 5 9 1 24 4 32 8 8 3 33 9 55 13 45 8 44 8 65 17
17 8 56 15 83 16 10 1 15 6 12 11 -4 6 6 10 23 10 16 0 32 3 36 8 4 4 11 7 14
8 4 1 23 7 42 15 19 7 38 12 43 11 4 -1 7 3 7 8 0 6 6 10 13 10 26 0 329 157
347 180 3 4 24 17 48 30 23 13 42 27 42 32 0 4 5 8 11 8 10 0 131 94 183 143
16 15 33 27 38 27 5 0 6 5 3 10 -3 6 -2 10 4 10 16 0 160 150 236 245 21 28
42 52 45 55 3 3 16 22 29 43 12 20 27 37 32 37 6 0 7 4 4 10 -3 5 -1 10 4 10
6 0 11 6 11 14 0 8 4 16 8 18 11 4 92 143 92 156 0 6 3 12 8 14 7 3 71 122 73
136 0 4 9 26 20 49 10 23 19 47 19 52 0 6 4 11 10 11 5 0 9 3 8 8 -3 11 14 76
21 82 6 4 34 92 46 145 3 11 8 34 12 50 4 17 5 38 4 49 -2 11 2 16 8 12 7 -5
11 7 11 33 0 23 4 41 8 41 5 0 8 16 7 35 -1 20 1 37 5 40 3 2 7 26 9 54 1 27
4 60 8 73 9 38 11 402 1 420 -5 10 -4 19 3 24 8 4 8 9 1 13 -6 4 -13 33 -15
66 -3 33 -6 60 -7 60 -2 0 -7 25 -14 73 -5 41 -34 167 -43 192 -3 8 -8 24 -10
35 -9 40 -19 70 -34 97 -5 10 -9 26 -9 36 0 9 -6 26 -14 37 -13 20 -31 74 -28
88 1 4 -2 7 -8 7 -5 0 -10 5 -10 10 0 20 -131 275 -149 290 -8 6 -29 40 -38
60 -4 8 -9 17 -12 20 -3 3 -20 25 -36 50 -16 25 -32 47 -35 50 -3 3 -25 30
-50 60 -86 106 -330 353 -330 334 0 -2 -8 4 -18 14 -11 9 -32 26 -47 37 -16
11 -33 25 -39 30 -26 24 -105 75 -116 75 -6 0 -8 5 -5 10 3 6 -2 10 -11 10 -9
0 -32 11 -50 25 -18 14 -40 25 -48 25 -9 0 -16 4 -16 9 0 5 -10 13 -22 17 -13
4 -25 9 -28 13 -6 7 -121 64 -135 67 -6 1 -32 11 -57 23 -26 11 -53 21 -60 21
-8 0 -18 4 -23 8 -13 12 -137 52 -158 52 -9 0 -17 4 -17 9 0 6 -9 8 -20 6 -11
-2 -20 1 -20 6 0 5 -6 9 -12 8 -7 -1 -35 2 -63 6 -27 5 -53 9 -57 10 -3 0 -10
3 -14 8 -4 4 -25 7 -46 7 -22 0 -37 3 -35 8 6 9 -60 13 -343 16 -129 1 -251
-1 -270 -5z m450 -188 c0 -3 21 -6 48 -7 26 -1 63 -4 82 -8 37 -8 75 -15 100
-20 8 -1 39 -6 68 -11 28 -4 52 -11 52 -15 0 -4 23 -10 50 -14 28 -4 50 -11
50 -16 0 -6 3 -9 8 -8 11 3 76 -13 87 -22 6 -4 28 -13 50 -20 22 -7 44 -16 50
-21 5 -5 17 -9 27 -9 10 0 18 -4 18 -10 0 -5 5 -10 11 -10 12 0 100 -41 109
-50 3 -3 18 -11 34 -18 50 -22 263 -168 308 -211 9 -9 35 -32 58 -51 95 -79
210 -202 293 -314 21 -28 45 -59 53 -69 8 -10 20 -29 26 -43 6 -13 15 -24 19
-24 4 0 10 -11 13 -25 4 -14 10 -23 15 -20 5 2 12 -7 16 -22 3 -16 10 -30 13
-33 14 -11 71 -128 65 -134 -4 -3 -1 -6 5 -6 7 0 12 -8 12 -19 0 -10 7 -24 15
-31 8 -7 15 -20 15 -29 0 -9 4 -21 9 -26 6 -6 12 -22 15 -38 3 -15 12 -42 21
-59 8 -18 18 -49 21 -70 4 -21 11 -35 15 -32 5 3 8 2 7 -3 -2 -7 5 -45 17 -98
23 -103 34 -159 30 -163 -2 -3 0 -12 4 -21 28 -52 31 -510 5 -632 -5 -26 -10
-54 -19 -109 -3 -19 -9 -42 -12 -50 -11 -26 -28 -111 -25 -122 1 -5 -2 -8 -7
-8 -5 0 -12 -20 -16 -45 -4 -29 -10 -43 -17 -39 -6 4 -8 2 -5 -3 17 -27 -161
-405 -220 -471 -13 -13 -20 -28 -17 -33 3 -5 -1 -11 -8 -14 -8 -3 -25 -23 -38
-45 -14 -22 -28 -40 -32 -40 -5 0 -8 -7 -8 -15 0 -7 -6 -18 -12 -22 -7 -4 -30
-28 -50 -53 -59 -73 -155 -170 -168 -170 -6 0 -9 -4 -6 -8 2 -4 -9 -17 -25
-27 -16 -11 -29 -26 -29 -33 0 -7 -4 -11 -9 -8 -5 3 -19 -5 -32 -17 -37 -35
-146 -117 -157 -117 -5 0 -12 -7 -16 -15 -3 -8 -10 -15 -15 -15 -6 0 -35 -16
-66 -35 -30 -20 -55 -32 -55 -28 0 4 -5 1 -10 -8 -5 -9 -22 -20 -37 -24 -15
-3 -30 -10 -33 -14 -7 -11 -170 -81 -187 -81 -7 0 -13 -4 -13 -10 0 -5 -3 -9
-7 -8 -5 1 -24 -4 -43 -11 -44 -17 -49 -19 -82 -26 -15 -3 -39 -10 -53 -15
-14 -5 -25 -6 -25 -2 0 4 -4 2 -8 -4 -6 -10 -74 -25 -119 -27 -7 0 -13 -4 -13
-9 0 -4 -3 -7 -7 -6 -8 1 -83 -7 -158 -18 -58 -9 -455 -13 -455 -5 0 4 -16 7
-36 8 -97 2 -327 50 -360 75 -6 4 -13 5 -16 2 -5 -4 -24 2 -103 32 -11 4 -23
8 -27 8 -3 1 -10 4 -14 8 -4 5 -16 8 -26 8 -11 0 -16 4 -13 10 3 6 -1 7 -9 4
-9 -3 -16 -1 -16 6 0 6 -4 9 -8 6 -10 -6 -169 70 -196 93 -10 9 -20 15 -22 14
-6 -4 -91 48 -141 84 -24 18 -48 33 -53 33 -6 0 -10 5 -10 10 0 6 -5 10 -10
10 -6 0 -24 14 -40 30 -17 17 -30 27 -30 23 0 -4 -7 1 -15 11 -8 11 -15 16
-15 11 0 -5 -65 58 -145 139 -80 81 -143 152 -140 156 3 5 -4 11 -15 15 -11 4
-18 10 -15 15 3 5 -3 13 -12 19 -10 6 -14 11 -10 11 5 0 2 6 -5 14 -7 7 -20
24 -28 36 -8 12 -21 29 -28 36 -7 8 -10 14 -5 14 4 0 0 5 -10 11 -9 6 -15 14
-12 20 4 5 -1 12 -9 15 -9 3 -16 11 -16 16 0 6 -14 33 -30 60 -17 27 -27 54
-24 60 4 6 3 9 -2 5 -5 -3 -18 15 -29 39 -11 24 -23 44 -27 44 -4 0 -10 16
-14 35 -3 19 -10 38 -15 41 -5 3 -7 10 -4 15 4 5 1 9 -4 9 -6 0 -11 7 -11 16
0 8 -5 25 -12 37 -13 24 -15 28 -24 72 -4 17 -10 32 -13 35 -6 4 -25 72 -35
125 -2 11 -9 32 -14 46 -6 15 -8 29 -5 32 3 3 1 11 -3 18 -4 8 -9 29 -11 49
-2 19 -7 49 -12 65 -4 17 -7 49 -7 73 1 23 -1 42 -4 42 -3 0 -6 90 -6 200 0
136 3 200 10 200 6 0 4 5 -4 10 -8 5 -10 10 -4 10 5 0 10 10 10 23 0 23 13
130 20 157 2 8 11 47 20 85 8 39 17 75 19 80 1 6 6 25 10 43 4 17 10 32 14 32
4 0 8 11 9 24 1 13 7 37 13 52 7 16 13 31 14 34 25 75 80 188 89 183 5 -3 6
-1 2 5 -7 11 51 124 66 130 4 2 8 10 8 18 0 15 88 147 102 152 4 2 6 8 2 13
-3 5 2 12 10 15 9 3 16 11 16 18 0 6 8 19 18 27 9 9 31 33 47 55 46 59 231
244 244 244 7 0 9 4 6 10 -3 5 6 12 20 16 13 3 23 9 20 14 -2 4 7 13 20 20 14
7 25 17 25 22 0 4 7 8 15 8 9 0 18 7 21 15 4 8 12 15 19 15 7 0 18 7 25 15 25
30 330 202 330 187 0 -4 4 -2 8 4 4 5 52 27 107 48 55 21 107 42 117 46 9 5
39 12 67 16 28 4 49 10 47 13 -3 4 3 7 12 8 9 1 31 4 47 8 17 4 39 7 50 9 11
1 25 4 30 7 6 3 21 5 35 5 14 -1 27 2 30 6 3 4 29 8 57 9 29 1 57 5 62 9 14 8
411 9 411 1z"/>
<path d="M1960 3694 c0 -7 -19 -14 -42 -17 -52 -6 -88 -14 -125 -28 -16 -6
-29 -10 -30 -10 -2 0 -29 -10 -88 -34 -25 -10 -24 -10 -57 -19 -16 -5 -28 -13
-28 -19 0 -6 -3 -8 -6 -4 -3 3 -26 -3 -50 -13 -24 -11 -44 -17 -44 -13 0 3 -6
1 -12 -4 -7 -5 -35 -17 -63 -27 -27 -10 -59 -21 -70 -26 -78 -30 -75 -28 -66
-52 9 -26 54 -36 76 -18 8 7 22 10 30 6 8 -3 15 -2 15 3 0 8 34 21 54 20 5 -1
12 4 15 10 4 5 18 12 31 15 14 3 66 21 115 41 238 95 287 108 410 109 84 0
117 -4 200 -24 28 -6 59 -14 70 -16 11 -3 25 -6 30 -8 6 -2 28 -6 50 -10 22
-4 47 -10 55 -13 8 -3 24 -7 35 -9 25 -4 112 -21 145 -29 14 -3 51 -8 83 -12
31 -3 57 -9 57 -13 0 -5 10 -8 23 -7 27 1 165 -13 192 -20 11 -3 70 -6 130 -7
120 -2 155 -10 155 -32 0 -8 4 -14 8 -14 29 0 -24 -70 -58 -78 -8 -2 -24 -6
-35 -9 -62 -14 -140 -19 -307 -18 -122 0 -188 -3 -188 -10 0 -7 -3 -7 -8 0 -9
13 -42 16 -42 4 0 -5 -5 -9 -11 -9 -5 0 -8 4 -5 9 4 5 -2 8 -11 6 -10 -2 -18
-4 -18 -5 0 -2 -18 -3 -40 -5 -27 -1 -47 4 -60 16 -34 30 -87 47 -140 43 -27
-1 -50 -3 -50 -4 0 -1 -11 -3 -25 -5 -26 -3 -91 -13 -125 -19 -11 -2 -45 -7
-75 -11 -30 -4 -63 -9 -72 -11 -10 -2 -28 -6 -40 -9 -13 -3 -50 -8 -83 -11
-87 -10 -131 -44 -87 -69 18 -11 56 -12 82 -2 18 7 146 22 177 21 12 -1 20 3
17 7 -3 5 12 9 33 10 21 0 47 2 58 4 11 2 38 5 60 7 22 2 43 6 46 11 10 13
152 13 157 -1 2 -6 10 -12 18 -12 8 0 14 -8 15 -17 0 -10 2 -27 4 -37 2 -11 0
-27 -5 -36 -9 -16 -98 -67 -111 -63 -4 2 -23 -4 -42 -12 -19 -8 -37 -11 -41
-8 -3 4 -6 1 -6 -5 0 -7 -8 -12 -17 -12 -10 0 -31 -7 -47 -15 -16 -9 -31 -13
-34 -11 -2 3 -11 -2 -19 -10 -8 -8 -19 -12 -24 -9 -5 4 -9 1 -9 -4 0 -6 -5
-11 -11 -11 -9 0 -50 -17 -136 -57 -17 -8 -37 -16 -45 -17 -7 -2 -20 -6 -28
-9 -33 -13 -108 -29 -153 -33 -27 -2 -53 -6 -58 -9 -5 -4 -9 -1 -9 5 0 6 -5 8
-12 4 -16 -10 -58 -11 -64 -2 -3 5 -14 3 -25 -2 -10 -6 -19 -7 -19 -3 0 7
-199 10 -225 3 -5 -1 -13 -2 -17 -1 -13 2 -9 -40 4 -53 8 -6 46 -12 88 -14
116 -3 342 -2 370 2 47 6 135 29 162 42 15 8 36 14 48 14 11 0 20 4 20 10 0 5
12 13 28 16 15 4 38 13 52 20 35 19 142 65 160 69 8 2 32 11 53 19 20 9 37 14
37 11 0 -3 14 1 30 10 17 9 30 13 30 10 0 -4 10 1 22 9 12 9 29 16 37 16 16 0
84 69 90 91 2 8 3 24 3 37 0 12 3 22 7 23 43 7 156 11 344 12 125 1 227 4 227
8 0 3 25 9 56 12 31 3 62 11 67 16 6 6 18 11 26 11 19 0 71 49 71 67 0 7 4 13
10 13 13 0 3 66 -15 101 -27 51 -59 62 -185 65 -63 2 -140 6 -170 10 -30 4
-66 9 -80 10 -14 1 -36 5 -50 8 -14 2 -47 7 -75 11 -27 3 -57 8 -65 10 -8 2
-31 6 -50 9 -19 3 -46 8 -60 11 -14 3 -39 6 -57 7 -18 1 -30 5 -27 10 3 4 -7
8 -23 9 -37 1 -73 7 -103 19 -14 5 -52 14 -85 21 -33 7 -67 14 -75 16 -8 3
-37 7 -65 10 -27 3 -55 9 -61 14 -6 5 -14 6 -17 2 -11 -11 -91 -10 -99 1 -5 8
-8 7 -8 0z"/>
<path d="M2560 2811 c-24 -8 -49 -18 -55 -22 -50 -38 -96 -88 -154 -169 -61
-86 -71 -96 -107 -102 -35 -6 -80 -14 -124 -23 -8 -2 -32 -4 -53 -4 -21 -1
-36 -5 -33 -9 3 -5 -7 -8 -22 -7 -15 1 -37 -2 -49 -6 -13 -5 -42 -10 -65 -13
-83 -8 -81 -5 -74 -125 7 -118 10 -141 25 -188 5 -18 7 -33 4 -33 -3 0 -1 -6
5 -12 10 -13 12 -19 12 -36 0 -4 17 -26 38 -48 36 -39 62 -50 162 -70 49 -9
189 -25 223 -25 9 0 17 -3 18 -7 4 -31 9 -74 13 -112 2 -25 5 -45 6 -45 2 0 4
-17 13 -125 10 -109 29 -188 49 -207 12 -11 18 -12 18 -4 0 7 4 10 9 6 13 -7
23 28 17 57 -6 23 -15 87 -21 143 -1 17 -6 55 -10 85 -3 30 -8 73 -10 95 -12
167 -20 182 -89 184 -23 0 -52 3 -66 6 -14 3 -50 8 -80 11 -64 6 -105 11 -105
14 0 1 -13 4 -29 6 -35 6 -89 42 -81 54 3 5 1 10 -4 12 -5 1 -11 14 -13 28 -1
14 -6 27 -10 30 -6 5 -14 67 -22 188 -3 35 3 49 17 40 1 -1 11 3 22 9 11 6 44
14 74 18 30 4 65 11 78 16 15 6 23 5 23 -2 0 -8 4 -8 13 -1 6 6 28 13 47 15
19 3 36 6 38 7 1 2 11 4 22 5 11 1 22 4 25 5 3 1 13 3 23 4 34 4 61 17 66 34
3 9 16 28 29 42 12 14 34 43 47 65 13 22 28 45 32 50 33 41 58 64 76 70 12 3
22 10 22 15 0 4 17 11 38 15 50 10 345 12 379 3 64 -17 103 -76 142 -213 12
-44 26 -92 30 -107 10 -30 22 -27 -179 -54 -25 -3 -52 -12 -61 -20 -8 -8 -22
-14 -29 -14 -7 0 -11 -3 -7 -6 3 -3 -2 -14 -11 -24 -26 -28 -39 -45 -43 -56
-24 -57 -69 -116 -99 -131 -19 -9 -37 -19 -40 -22 -3 -3 -18 -14 -35 -23 -27
-15 -30 -21 -29 -65 2 -57 4 -65 31 -123 31 -66 102 -127 141 -121 6 1 12 -2
12 -7 0 -5 6 -9 13 -9 106 -2 224 -16 237 -29 10 -10 11 -14 2 -14 -8 0 -10
-5 -5 -12 4 -7 9 -26 9 -43 13 -240 23 -277 67 -253 18 9 19 18 12 137 -4 69
-8 136 -8 149 -1 12 -3 22 -6 22 -4 0 -7 16 -8 36 -1 19 -6 41 -12 48 -6 7 -9
15 -7 17 2 2 -41 5 -97 5 -138 2 -197 7 -197 16 0 5 -7 8 -15 8 -9 0 -18 7
-21 15 -4 8 -11 15 -18 15 -14 0 -53 84 -58 124 -3 25 2 32 37 51 73 39 92 55
110 95 10 22 21 40 25 40 5 0 10 10 14 23 3 13 23 41 44 63 34 36 43 40 92 43
29 1 58 5 64 9 6 3 26 6 46 7 20 1 40 3 45 6 6 3 23 6 38 7 18 1 38 13 55 34
15 17 36 43 47 56 11 13 31 35 45 50 14 14 24 29 23 33 -1 4 4 10 12 13 12 4
31 -32 39 -77 1 -7 11 -39 21 -72 11 -33 19 -65 20 -72 0 -6 4 -15 8 -19 4 -4
7 -17 7 -29 0 -12 3 -25 7 -29 4 -3 8 -12 9 -19 9 -54 15 -79 24 -101 5 -15 6
-26 2 -26 -4 0 -2 -4 4 -8 10 -6 23 -63 27 -109 0 -7 4 -10 9 -7 4 3 9 -9 9
-25 2 -38 3 -43 10 -56 4 -5 5 -18 4 -28 -2 -9 0 -15 5 -12 4 3 10 -10 13 -28
10 -65 23 -128 31 -155 3 -9 8 -30 10 -47 3 -16 10 -46 16 -65 5 -19 10 -46
10 -60 0 -14 9 -36 20 -50 16 -20 22 -23 37 -14 18 11 21 43 8 109 -3 17 -8
48 -11 70 -4 22 -10 45 -15 50 -4 6 -10 28 -13 50 -8 58 -11 69 -20 83 -4 7
-5 16 -2 19 3 3 1 12 -5 20 -6 7 -9 13 -6 13 3 0 -3 30 -14 68 -11 37 -21 79
-24 93 -3 14 -11 44 -19 66 -8 23 -12 44 -9 47 3 3 0 12 -7 21 -7 8 -9 15 -5
15 4 0 2 7 -5 15 -7 8 -10 15 -7 15 4 0 -1 19 -9 43 -8 23 -17 57 -20 76 -2
19 -9 40 -15 47 -6 7 -8 18 -4 24 3 5 2 10 -3 10 -6 0 -13 23 -17 50 -4 28
-11 50 -15 50 -5 0 -11 19 -15 43 -8 53 -35 127 -46 128 -29 4 -39 3 -41 -6
-2 -5 -14 -21 -28 -35 -14 -15 -40 -45 -58 -68 -54 -66 -82 -94 -83 -83 -2 15
-5 23 -13 43 -4 9 -9 25 -11 35 -2 10 -4 18 -5 18 -3 0 -11 39 -13 62 -1 13
-5 23 -9 23 -5 0 -8 9 -8 20 0 11 -4 20 -9 20 -5 0 -13 12 -19 28 -12 35 -80
101 -112 109 -14 3 -29 8 -35 12 -22 13 -369 6 -415 -8z"/>
</g>
</svg>
