<svg width="49" height="48" viewBox="0 0 49 48" fill="none" xmlns="http://www.w3.org/2000/svg">
<path d="M34.182 31.6585L34.534 31.9925L34.89 31.6585C35.3052 31.2531 35.8018 30.9297 36.3508 30.7073C36.8999 30.4849 37.4904 30.3679 38.0879 30.3631C38.6854 30.3583 39.278 30.4658 39.831 30.6793C40.384 30.8929 40.8863 31.2082 41.3088 31.6068C41.7312 32.0055 42.0653 32.4795 42.2915 33.0013C42.5176 33.5231 42.6314 34.0821 42.6261 34.6458C42.6208 35.2095 42.4966 35.7665 42.2607 36.2844C42.0248 36.8023 41.6819 37.2707 41.252 37.6623L34.536 44L27.818 37.6623C26.9741 36.8661 26.5 35.7863 26.5 34.6604C26.5 33.5345 26.9741 32.4546 27.818 31.6585C28.6619 30.8623 29.8065 30.4151 31 30.4151C32.1935 30.4151 33.3381 30.8623 34.182 31.6585ZM22.5 28.5283V32.3019C19.3174 32.3019 16.2652 33.4946 14.0147 35.6177C11.7643 37.7407 10.5 40.6202 10.5 43.6226H6.5C6.50005 39.7011 8.11787 35.9335 11.0109 33.1175C13.904 30.3016 17.8452 28.6584 22 28.5358L22.5 28.5283ZM22.5 4C29.13 4 34.5 9.06604 34.5 15.3208C34.5011 18.2501 33.2982 21.0656 31.1442 23.1755C28.9902 25.2853 26.0529 26.5251 22.95 26.634L22.5 26.6415C15.87 26.6415 10.5 21.5755 10.5 15.3208C10.4989 12.3915 11.7018 9.57586 13.8558 7.46602C16.0098 5.35617 18.9471 4.11646 22.05 4.00755L22.5 4ZM22.5 7.77358C18.08 7.77358 14.5 11.1509 14.5 15.3208C14.5 19.4906 18.08 22.8679 22.5 22.8679C26.92 22.8679 30.5 19.4906 30.5 15.3208C30.5 11.1509 26.92 7.77358 22.5 7.77358Z" fill="#E1E1E1"/>
</svg>
